<?xml version="1.0" encoding="UTF-8"?>
<svg xmlns="http://www.w3.org/2000/svg"
     xmlns:xlink="http://www.w3.org/1999/xlink"
     xmlns:gadfly="http://www.gadflyjl.org/ns"
     version="1.2"
     width="300mm" height="200mm" viewBox="0 0 300 200"
     stroke="none"
     fill="#000000"
     stroke-width="0.3"
     font-size="3.88"
>
<g stroke="#000000" stroke-opacity="0.000" fill="#FFFFFF" id="img-e61f942e-1">
  <rect x="0" y="0" width="300" height="200"/>
</g>
<g class="plotroot xscalable yscalable" id="img-e61f942e-2">
  <g font-size="6.35" font-family="'PT Sans','Helvetica Neue','Helvetica',sans-serif" fill="#564A55" stroke="#000000" stroke-opacity="0.000" id="img-e61f942e-3">
    <text x="149.24" y="186.08" text-anchor="middle" dy="0.6em">Vg(V)</text>
  </g>
  <g class="guide xlabels" font-size="6.35" font-family="'PT Sans Caption','Helvetica Neue','Helvetica',sans-serif" fill="#6C606B" id="img-e61f942e-4">
    <text x="38.61" y="177.47" text-anchor="middle" dy="0.6em">0</text>
    <text x="93.92" y="177.47" text-anchor="middle" dy="0.6em">1</text>
    <text x="149.24" y="177.47" text-anchor="middle" dy="0.6em">2</text>
    <text x="204.56" y="177.47" text-anchor="middle" dy="0.6em">3</text>
    <text x="259.88" y="177.47" text-anchor="middle" dy="0.6em">4</text>
  </g>
  <g class="guide colorkey" id="img-e61f942e-5">
    <g fill="#4C404B" font-size="6.35" font-family="'PT Sans','Helvetica Neue','Helvetica',sans-serif" id="img-e61f942e-6">
      <text x="266.68" y="90.74" dy="0.35em">Front-Gate</text>
      <text x="266.68" y="96.33" dy="0.35em">Back-Gate</text>
    </g>
    <g stroke="#000000" stroke-opacity="0.000" id="img-e61f942e-7">
      <rect x="262.88" y="89.34" width="2.8" height="2.8" fill="#008000"/>
      <rect x="262.88" y="94.93" width="2.8" height="2.8" fill="#00BFFF"/>
    </g>
    <g fill="#362A35" font-size="6.35" font-family="'PT Sans','Helvetica Neue','Helvetica',sans-serif" stroke="#000000" stroke-opacity="0.000" id="img-e61f942e-8">
      <text x="262.88" y="85.42">Lines</text>
    </g>
  </g>
<g clip-path="url(#img-e61f942e-9)">
  <g id="img-e61f942e-10">
    <g pointer-events="visible" opacity="1" fill="#000000" fill-opacity="0.000" stroke="#000000" stroke-opacity="0.000" class="guide background" id="img-e61f942e-11">
      <rect x="36.61" y="5" width="225.27" height="171.47"/>
    </g>
    <g class="guide ygridlines xfixed" stroke-dasharray="0.5,0.5" stroke-width="0.2" stroke="#D0D0E0" id="img-e61f942e-12">
      <path fill="none" d="M36.61,174.47 L 261.88 174.47"/>
      <path fill="none" d="M36.61,132.6 L 261.88 132.6"/>
      <path fill="none" d="M36.61,90.74 L 261.88 90.74"/>
      <path fill="none" d="M36.61,48.87 L 261.88 48.87"/>
      <path fill="none" d="M36.61,7 L 261.88 7"/>
    </g>
    <g class="guide xgridlines yfixed" stroke-dasharray="0.5,0.5" stroke-width="0.2" stroke="#D0D0E0" id="img-e61f942e-13">
      <path fill="none" d="M38.61,5 L 38.61 176.47"/>
      <path fill="none" d="M93.92,5 L 93.92 176.47"/>
      <path fill="none" d="M149.24,5 L 149.24 176.47"/>
      <path fill="none" d="M204.56,5 L 204.56 176.47"/>
      <path fill="none" d="M259.88,5 L 259.88 176.47"/>
    </g>
    <g class="plotpanel" id="img-e61f942e-14">
      <g stroke-width="1.06" fill="#000000" fill-opacity="0.000" class="geometry" stroke-dasharray="none" stroke="#008000" id="img-e61f942e-15">
        <path fill="none" d="M38.61,134.43 L 39.44 133.75 40.27 133.08 41.1 132.43 41.93 131.79 42.76 131.15 43.59 130.51 44.42 129.86 45.25 129.21 46.08 128.54 46.91 127.87 47.74 127.18 48.57 126.47 49.4 125.76 50.23 125.05 51.06 124.32 51.89 123.6 52.72 122.87 53.55 122.14 54.38 121.41 55.21 120.68 56.04 119.96 56.87 119.24 57.7 118.51 58.53 117.79 59.36 117.07 60.19 116.36 61.02 115.64 61.85 114.92 62.68 114.2 63.51 113.48 64.34 112.76 65.17 112.04 66 111.32 66.83 110.61 67.66 109.89 68.49 109.18 69.32 108.47 70.15 107.76 70.98 107.06 71.81 106.36 72.64 105.66 73.47 104.97 74.3 104.28 75.13 103.59 75.96 102.89 76.78 102.2 77.61 101.51 78.44 100.82 79.27 100.12 80.1 99.42 80.93 98.73 81.76 98.02 82.59 97.32 83.42 96.61 84.25 95.9 85.08 95.19 85.91 94.48 86.74 93.76 87.57 93.04 88.4 92.31 89.23 91.59 90.06 90.86 90.89 90.13 91.72 89.39 92.55 88.66 93.38 87.92 94.21 87.18 95.04 86.44 95.87 85.7 96.7 84.95 97.53 84.2 98.36 83.46 99.19 82.71 100.02 81.96 100.85 81.2 101.68 80.45 102.51 79.69 103.34 78.93 104.17 78.17 105 77.41 105.83 76.65 106.66 75.88 107.49 75.11 108.32 74.34 109.15 73.57 109.98 72.79 110.81 72.02 111.64 71.24 112.47 70.45 113.3 69.67 114.13 68.88 114.96 68.1 115.79 67.31 116.62 66.52 117.45 65.74 118.28 64.96 119.11 64.19 119.94 63.41 120.77 62.65 121.6 61.89 122.42 61.13 123.25 60.38 124.08 59.63 124.91 58.89 125.74 58.15 126.57 57.41 127.4 56.67 128.23 55.94 129.06 55.21 129.89 54.48 130.72 53.75 131.55 53.02 132.38 52.3 133.21 51.59 134.04 50.88 134.88 50.18 135.71 49.49 136.54 48.81 137.37 48.13 138.2 47.47 139.03 46.82 139.86 46.17 140.69 45.53 141.52 44.91 142.35 44.29 143.18 43.69 144.01 43.09 144.84 42.5 145.66 41.92 146.49 41.35 147.32 40.79 148.15 40.23 148.98 39.69 149.81 39.15 150.64 38.62 151.47 38.1 152.3 37.58 153.13 37.07 153.96 36.57 154.79 36.07 155.62 35.58 156.45 35.09 157.28 34.62 158.11 34.15 158.94 33.68 159.77 33.22 160.6 32.78 161.43 32.33 162.26 31.9 163.09 31.47 163.92 31.05 164.75 30.64 165.58 30.23 166.41 29.83 167.24 29.44 168.07 29.05 168.9 28.67 169.73 28.3 170.56 27.93 171.39 27.57 172.22 27.21 173.05 26.86 173.88 26.52 174.71 26.18 175.54 25.84 176.37 25.51 177.2 25.19 178.03 24.87 178.86 24.56 179.69 24.26 180.52 23.96 181.34 23.67 182.17 23.38 183 23.1 183.83 22.82 184.66 22.55 185.49 22.28 186.32 22.02 187.15 21.76 187.98 21.51 188.81 21.26 189.64 21.02 190.47 20.78 191.3 20.55 192.13 20.32 192.96 20.1 193.79 19.88 194.62 19.66 195.45 19.45 196.28 19.25 197.11 19.05 197.94 18.85 198.77 18.66 199.6 18.47 200.43 18.29 201.26 18.11 202.09 17.93 202.92 17.75 203.75 17.58 204.58 17.41"/>
      </g>
      <g stroke-width="1.06" fill="#000000" fill-opacity="0.000" class="geometry" stroke-dasharray="none" stroke="#00BFFF" id="img-e61f942e-16">
        <path fill="none" d="M52.72,103 L 53.55 102.95 54.38 102.87 55.21 102.79 56.04 102.7 56.87 102.59 57.7 102.48 58.53 102.36 59.35 102.23 60.18 102.1 61.01 101.97 61.84 101.83 62.67 101.68 63.5 101.54 64.33 101.39 65.16 101.24 65.99 101.09 66.82 100.94 67.65 100.79 68.48 100.64 69.31 100.48 70.14 100.33 70.97 100.17 71.8 100.02 72.63 99.86 73.46 99.71 74.29 99.55 75.12 99.39 75.95 99.23 76.78 99.07 77.61 98.9 78.44 98.73 79.27 98.56 80.1 98.39 80.93 98.21 81.76 98.03 82.59 97.84 83.42 97.65 84.25 97.45 85.08 97.26 85.91 97.05 86.74 96.85 87.57 96.64 88.4 96.42 89.23 96.2 90.06 95.98 90.89 95.76 91.72 95.53 92.55 95.31 93.38 95.08 94.21 94.86 95.04 94.65 95.87 94.44 96.7 94.23 97.53 94.03 98.36 93.84 99.19 93.65 100.02 93.46 100.85 93.27 101.67 93.08 102.5 92.89 103.33 92.7 104.16 92.5 104.99 92.3 105.82 92.1 106.65 91.89 107.48 91.68 108.31 91.46 109.14 91.25 109.97 91.03 110.8 90.81 111.63 90.6 112.46 90.39 113.29 90.18 114.12 89.98 114.95 89.78 115.78 89.58 116.61 89.39 117.44 89.19 118.27 88.99 119.1 88.8 119.93 88.6 120.76 88.4 121.6 88.19 122.43 87.98 123.26 87.77 124.09 87.56 124.91 87.34 125.74 87.13 126.57 86.91 127.4 86.69 128.23 86.48 129.06 86.26 129.89 86.05 130.72 85.84 131.55 85.64 132.38 85.43 133.21 85.22 134.04 85.01 134.87 84.8 135.7 84.58 136.53 84.36 137.36 84.14 138.19 83.9 139.02 83.66 139.85 83.42 140.68 83.17 141.51 82.92 142.34 82.67 143.17 82.42 144 82.18 144.83 81.94 145.66 81.7 146.49 81.47 147.32 81.26 148.15 81.04 148.98 80.84 149.81 80.64 150.64 80.44 151.47 80.25 152.3 80.06 153.13 79.86 153.96 79.67 154.79 79.48 155.62 79.28 156.45 79.08 157.28 78.88 158.11 78.68 158.94 78.48 159.77 78.28 160.59 78.08 161.42 77.89 162.25 77.69 163.08 77.5 163.91 77.31 164.74 77.13 165.57 76.95 166.4 76.77 167.23 76.59 168.06 76.41 168.89 76.24 169.72 76.07 170.55 75.89 171.38 75.72 172.21 75.55 173.04 75.38 173.87 75.21 174.7 75.04 175.53 74.88 176.36 74.71 177.19 74.55 178.02 74.39 178.85 74.24 179.68 74.08 180.51 73.93 181.34 73.78 182.17 73.63 183 73.47 183.83 73.31 184.66 73.14 185.49 72.95 186.32 72.75 187.15 72.54 187.98 72.31 188.81 72.06 189.64 71.8 190.47 71.53 191.3 71.26 192.13 70.99 192.96 70.73 193.79 70.48 194.62 70.25 195.45 70.04 196.28 69.85 197.11 69.69 197.93 69.56 198.76 69.45 199.59 69.36 200.42 69.28 201.25 69.22 202.08 69.17 202.91 69.12 203.74 69.08 204.57 69.05"/>
      </g>
    </g>
  </g>
</g>
  <g class="guide ylabels" font-size="6.35" font-family="'PT Sans Caption','Helvetica Neue','Helvetica',sans-serif" fill="#6C606B" id="img-e61f942e-17">
    <text x="35.61" y="174.47" text-anchor="end" dy="0.35em">10<tspan style="dominant-baseline:inherit" dy="-1.7225" font-size="83.3333%">-8</tspan><tspan style="dominant-baseline:inherit" dy="1.4355"></tspan></text>
    <text x="35.61" y="132.6" text-anchor="end" dy="0.35em">10<tspan style="dominant-baseline:inherit" dy="-1.7225" font-size="83.3333%">-7</tspan><tspan style="dominant-baseline:inherit" dy="1.4355"></tspan></text>
    <text x="35.61" y="90.74" text-anchor="end" dy="0.35em">10<tspan style="dominant-baseline:inherit" dy="-1.7225" font-size="83.3333%">-6</tspan><tspan style="dominant-baseline:inherit" dy="1.4355"></tspan></text>
    <text x="35.61" y="48.87" text-anchor="end" dy="0.35em">10<tspan style="dominant-baseline:inherit" dy="-1.7225" font-size="83.3333%">-5</tspan><tspan style="dominant-baseline:inherit" dy="1.4355"></tspan></text>
    <text x="35.61" y="7" text-anchor="end" dy="0.35em">10<tspan style="dominant-baseline:inherit" dy="-1.7225" font-size="83.3333%">-4</tspan><tspan style="dominant-baseline:inherit" dy="1.4355"></tspan></text>
  </g>
  <g font-size="6.35" font-family="'PT Sans','Helvetica Neue','Helvetica',sans-serif" fill="#564A55" stroke="#000000" stroke-opacity="0.000" id="img-e61f942e-18">
    <text x="13.69" y="88.74" text-anchor="middle" dy="0.35em" transform="rotate(-90, 13.69, 90.74)">Derivative(Id)<tspan x="13.69" dy="1.2em">(Transconductance)</tspan></text>
  </g>
</g>
<defs>
  <clipPath id="img-e61f942e-9">
  <path d="M36.61,5 L 261.88 5 261.88 176.47 36.61 176.47" />
</clipPath>
</defs>
</svg>
