<?xml version="1.0" encoding="UTF-8"?>
<svg xmlns="http://www.w3.org/2000/svg"
     xmlns:xlink="http://www.w3.org/1999/xlink"
     xmlns:gadfly="http://www.gadflyjl.org/ns"
     version="1.2"
     width="180mm" height="120mm" viewBox="0 0 180 120"
     stroke="none"
     fill="#000000"
     stroke-width="0.3"
     font-size="3.88"
>
<g stroke="#000000" stroke-opacity="0.000" fill="#FFFFFF" id="img-cad347c2-1">
  <rect x="0" y="0" width="180" height="120"/>
</g>
<g class="plotroot xscalable yscalable" id="img-cad347c2-2">
  <g font-size="6.35" font-family="'PT Sans','Helvetica Neue','Helvetica',sans-serif" fill="#564A55" stroke="#000000" stroke-opacity="0.000" id="img-cad347c2-3">
    <text x="85.51" y="106.08" text-anchor="middle" dy="0.6em">Vg(V)</text>
  </g>
  <g class="guide xlabels" font-size="6.35" font-family="'PT Sans Caption','Helvetica Neue','Helvetica',sans-serif" fill="#6C606B" id="img-cad347c2-4">
    <text x="31.14" y="97.47" text-anchor="middle" dy="0.6em">0</text>
    <text x="58.32" y="97.47" text-anchor="middle" dy="0.6em">1</text>
    <text x="85.51" y="97.47" text-anchor="middle" dy="0.6em">2</text>
    <text x="112.7" y="97.47" text-anchor="middle" dy="0.6em">3</text>
    <text x="139.88" y="97.47" text-anchor="middle" dy="0.6em">4</text>
  </g>
  <g class="guide colorkey" id="img-cad347c2-5">
    <g fill="#4C404B" font-size="6.35" font-family="'PT Sans','Helvetica Neue','Helvetica',sans-serif" id="img-cad347c2-6">
      <text x="146.68" y="50.74" dy="0.35em">Floating-Gate</text>
      <text x="146.68" y="56.33" dy="0.35em">Back-Gate</text>
    </g>
    <g stroke="#000000" stroke-opacity="0.000" id="img-cad347c2-7">
      <rect x="142.88" y="49.34" width="2.8" height="2.8" fill="#008000"/>
      <rect x="142.88" y="54.93" width="2.8" height="2.8" fill="#00BFFF"/>
    </g>
    <g fill="#362A35" font-size="6.35" font-family="'PT Sans','Helvetica Neue','Helvetica',sans-serif" stroke="#000000" stroke-opacity="0.000" id="img-cad347c2-8">
      <text x="142.88" y="45.42">Lines</text>
    </g>
  </g>
<g clip-path="url(#img-cad347c2-9)">
  <g id="img-cad347c2-10">
    <g pointer-events="visible" opacity="1" fill="#000000" fill-opacity="0.000" stroke="#000000" stroke-opacity="0.000" class="guide background" id="img-cad347c2-11">
      <rect x="29.14" y="5" width="112.74" height="91.47"/>
    </g>
    <g class="guide ygridlines xfixed" stroke-dasharray="0.5,0.5" stroke-width="0.2" stroke="#D0D0E0" id="img-cad347c2-12">
      <path fill="none" d="M29.14,94.47 L 141.88 94.47"/>
      <path fill="none" d="M29.14,72.6 L 141.88 72.6"/>
      <path fill="none" d="M29.14,50.74 L 141.88 50.74"/>
      <path fill="none" d="M29.14,28.87 L 141.88 28.87"/>
      <path fill="none" d="M29.14,7 L 141.88 7"/>
    </g>
    <g class="guide xgridlines yfixed" stroke-dasharray="0.5,0.5" stroke-width="0.2" stroke="#D0D0E0" id="img-cad347c2-13">
      <path fill="none" d="M31.14,5 L 31.14 96.47"/>
      <path fill="none" d="M58.32,5 L 58.32 96.47"/>
      <path fill="none" d="M85.51,5 L 85.51 96.47"/>
      <path fill="none" d="M112.7,5 L 112.7 96.47"/>
      <path fill="none" d="M139.88,5 L 139.88 96.47"/>
    </g>
    <g class="plotpanel" id="img-cad347c2-14">
      <g stroke-width="1.06" fill="#000000" fill-opacity="0.000" class="geometry" stroke-dasharray="none" stroke="#008000" id="img-cad347c2-15">
        <path fill="none" d="M31.14,73.56 L 31.55 73.2 31.96 72.85 32.37 72.51 32.77 72.18 33.18 71.84 33.59 71.51 34 71.17 34.4 70.83 34.81 70.48 35.22 70.13 35.63 69.77 36.03 69.4 36.44 69.03 36.85 68.66 37.26 68.28 37.67 67.9 38.07 67.52 38.48 67.14 38.89 66.76 39.3 66.38 39.71 66 40.11 65.62 40.52 65.24 40.93 64.87 41.34 64.49 41.74 64.12 42.15 63.74 42.56 63.37 42.97 62.99 43.38 62.61 43.78 62.24 44.19 61.86 44.6 61.49 45.01 61.11 45.42 60.74 45.82 60.37 46.23 60 46.64 59.63 47.05 59.26 47.46 58.9 47.86 58.53 48.27 58.17 48.68 57.81 49.09 57.45 49.49 57.09 49.9 56.73 50.31 56.36 50.72 56 51.12 55.64 51.53 55.27 51.94 54.91 52.35 54.54 52.75 54.17 53.16 53.81 53.57 53.44 53.98 53.06 54.39 52.69 54.79 52.31 55.2 51.94 55.61 51.56 56.02 51.18 56.43 50.8 56.83 50.42 57.24 50.04 57.65 49.65 58.06 49.27 58.47 48.88 58.87 48.49 59.28 48.1 59.69 47.71 60.1 47.32 60.5 46.93 60.91 46.54 61.32 46.15 61.73 45.76 62.14 45.36 62.54 44.97 62.95 44.57 63.36 44.17 63.77 43.78 64.17 43.38 64.58 42.98 64.99 42.58 65.4 42.17 65.81 41.77 66.22 41.36 66.62 40.96 67.03 40.55 67.44 40.14 67.85 39.73 68.25 39.32 68.66 38.91 69.07 38.5 69.48 38.09 69.89 37.68 70.29 37.27 70.7 36.87 71.11 36.47 71.51 36.07 71.92 35.67 72.33 35.27 72.74 34.88 73.15 34.49 73.55 34.1 73.96 33.71 74.37 33.33 74.78 32.94 75.18 32.56 75.59 32.18 76 31.8 76.41 31.42 76.82 31.04 77.22 30.66 77.63 30.29 78.04 29.92 78.45 29.56 78.86 29.19 79.26 28.84 79.67 28.48 80.08 28.14 80.49 27.8 80.9 27.46 81.3 27.13 81.71 26.8 82.12 26.48 82.53 26.16 82.94 25.85 83.34 25.54 83.75 25.24 84.16 24.94 84.57 24.65 84.97 24.36 85.38 24.07 85.79 23.79 86.2 23.51 86.6 23.24 87.01 22.97 87.42 22.71 87.83 22.44 88.23 22.18 88.64 21.93 89.05 21.67 89.46 21.42 89.87 21.18 90.27 20.94 90.68 20.7 91.09 20.46 91.5 20.23 91.91 20 92.31 19.78 92.72 19.56 93.13 19.35 93.54 19.13 93.95 18.93 94.35 18.72 94.76 18.52 95.17 18.32 95.58 18.12 95.98 17.93 96.39 17.74 96.8 17.56 97.21 17.37 97.62 17.19 98.02 17.02 98.43 16.84 98.84 16.67 99.25 16.5 99.65 16.34 100.06 16.17 100.47 16.01 100.88 15.86 101.29 15.71 101.69 15.56 102.1 15.41 102.51 15.26 102.92 15.12 103.32 14.98 103.73 14.85 104.14 14.71 104.55 14.58 104.96 14.45 105.36 14.32 105.77 14.2 106.18 14.08 106.59 13.96 106.99 13.84 107.4 13.73 107.81 13.61 108.22 13.5 108.63 13.4 109.03 13.29 109.44 13.19 109.85 13.09 110.26 12.99 110.66 12.9 111.07 12.8 111.48 12.71 111.89 12.62 112.3 12.53 112.7 12.44"/>
      </g>
      <g stroke-width="1.06" fill="#000000" fill-opacity="0.000" class="geometry" stroke-dasharray="none" stroke="#00BFFF" id="img-cad347c2-16">
        <path fill="none" d="M38.07,57.14 L 38.48 57.11 38.89 57.08 39.3 57.03 39.7 56.98 40.11 56.93 40.52 56.87 40.93 56.81 41.34 56.74 41.74 56.67 42.15 56.6 42.56 56.53 42.97 56.45 43.37 56.38 43.78 56.3 44.19 56.22 44.6 56.14 45.01 56.07 45.41 55.99 45.82 55.91 46.23 55.83 46.64 55.75 47.04 55.67 47.45 55.58 47.86 55.5 48.27 55.42 48.68 55.34 49.08 55.26 49.49 55.17 49.9 55.09 50.31 55 50.71 54.91 51.12 54.82 51.53 54.73 51.94 54.64 52.35 54.54 52.75 54.45 53.16 54.35 53.57 54.25 53.98 54.14 54.38 54.04 54.79 53.93 55.2 53.82 55.61 53.71 56.02 53.59 56.42 53.47 56.83 53.36 57.24 53.24 57.65 53.12 58.06 53.01 58.46 52.89 58.87 52.78 59.28 52.67 59.69 52.56 60.09 52.46 60.5 52.36 60.91 52.26 61.32 52.16 61.72 52.06 62.13 51.96 62.54 51.86 62.95 51.76 63.36 51.66 63.76 51.56 64.17 51.45 64.58 51.34 64.99 51.23 65.39 51.12 65.8 51 66.21 50.89 66.62 50.78 67.03 50.67 67.43 50.56 67.84 50.45 68.25 50.34 68.66 50.24 69.07 50.13 69.47 50.03 69.88 49.93 70.29 49.83 70.7 49.72 71.11 49.62 71.51 49.51 71.92 49.41 72.33 49.3 72.74 49.19 73.15 49.08 73.55 48.96 73.96 48.85 74.37 48.74 74.78 48.62 75.18 48.51 75.59 48.4 76 48.29 76.41 48.18 76.82 48.07 77.22 47.96 77.63 47.86 78.04 47.75 78.45 47.64 78.85 47.52 79.26 47.41 79.67 47.29 80.08 47.17 80.49 47.04 80.89 46.91 81.3 46.78 81.71 46.65 82.12 46.52 82.52 46.39 82.93 46.26 83.34 46.14 83.75 46.02 84.16 45.9 84.56 45.78 84.97 45.67 85.38 45.57 85.79 45.46 86.19 45.36 86.6 45.26 87.01 45.16 87.42 45.06 87.83 44.96 88.23 44.85 88.64 44.75 89.05 44.65 89.46 44.54 89.86 44.44 90.27 44.33 90.68 44.23 91.09 44.13 91.5 44.02 91.9 43.92 92.31 43.82 92.72 43.73 93.13 43.63 93.53 43.53 93.94 43.44 94.35 43.35 94.76 43.25 95.17 43.16 95.57 43.07 95.98 42.98 96.39 42.89 96.8 42.8 97.2 42.72 97.61 42.63 98.02 42.54 98.43 42.45 98.84 42.37 99.24 42.28 99.65 42.2 100.06 42.12 100.47 42.04 100.87 41.96 101.28 41.88 101.69 41.8 102.1 41.72 102.51 41.63 102.91 41.54 103.32 41.45 103.73 41.34 104.14 41.23 104.55 41.11 104.95 40.98 105.36 40.84 105.77 40.7 106.18 40.56 106.58 40.42 106.99 40.29 107.4 40.16 107.81 40.03 108.22 39.92 108.62 39.83 109.03 39.75 109.44 39.68 109.85 39.62 110.25 39.57 110.66 39.53 111.07 39.5 111.48 39.47 111.89 39.45 112.29 39.43 112.7 39.41"/>
      </g>
    </g>
  </g>
</g>
  <g class="guide ylabels" font-size="6.35" font-family="'PT Sans Caption','Helvetica Neue','Helvetica',sans-serif" fill="#6C606B" id="img-cad347c2-17">
    <text x="28.14" y="94.47" text-anchor="end" dy="0.35em">10<tspan style="dominant-baseline:inherit" dy="-1.7225" font-size="83.3333%">-8</tspan><tspan style="dominant-baseline:inherit" dy="1.4355"></tspan></text>
    <text x="28.14" y="72.6" text-anchor="end" dy="0.35em">10<tspan style="dominant-baseline:inherit" dy="-1.7225" font-size="83.3333%">-7</tspan><tspan style="dominant-baseline:inherit" dy="1.4355"></tspan></text>
    <text x="28.14" y="50.74" text-anchor="end" dy="0.35em">10<tspan style="dominant-baseline:inherit" dy="-1.7225" font-size="83.3333%">-6</tspan><tspan style="dominant-baseline:inherit" dy="1.4355"></tspan></text>
    <text x="28.14" y="28.87" text-anchor="end" dy="0.35em">10<tspan style="dominant-baseline:inherit" dy="-1.7225" font-size="83.3333%">-5</tspan><tspan style="dominant-baseline:inherit" dy="1.4355"></tspan></text>
    <text x="28.14" y="7" text-anchor="end" dy="0.35em">10<tspan style="dominant-baseline:inherit" dy="-1.7225" font-size="83.3333%">-4</tspan><tspan style="dominant-baseline:inherit" dy="1.4355"></tspan></text>
  </g>
  <g font-size="6.35" font-family="'PT Sans','Helvetica Neue','Helvetica',sans-serif" fill="#564A55" stroke="#000000" stroke-opacity="0.000" id="img-cad347c2-18">
    <text x="9.96" y="48.74" text-anchor="middle" dy="0.35em" transform="rotate(-90, 9.96, 50.74)">Derivative(Id)</text>
  </g>
</g>
<defs>
  <clipPath id="img-cad347c2-9">
  <path d="M29.14,5 L 141.88 5 141.88 96.47 29.14 96.47" />
</clipPath>
</defs>
</svg>
