<?xml version="1.0" encoding="utf-8" standalone="no"?>
<!DOCTYPE svg PUBLIC "-//W3C//DTD SVG 1.1//EN"
  "http://www.w3.org/Graphics/SVG/1.1/DTD/svg11.dtd">
<!-- Created with matplotlib (http://matplotlib.org/) -->
<svg height="257pt" version="1.1" viewBox="0 0 432 257" width="432pt" xmlns="http://www.w3.org/2000/svg" xmlns:xlink="http://www.w3.org/1999/xlink">
 <defs>
  <style type="text/css">
*{stroke-linecap:butt;stroke-linejoin:round;}
  </style>
 </defs>
 <g id="figure_1">
  <g id="patch_1">
   <path d="
M0 257.76
L432 257.76
L432 0
L0 0
z
" style="fill:#ffffff;"/>
  </g>
  <g id="axes_1">
   <g id="patch_2">
    <path d="
M38.9903 227.472
L429.165 227.472
L429.165 2.53701
L38.9903 2.53701
z
" style="fill:#ffffff;"/>
   </g>
   <g id="matplotlib.axis_1">
    <g id="xtick_1">
     <g id="line2d_1">
      <path clip-path="url(#pf15181884a)" d="
M185.122 227.472
L185.122 2.53701" style="fill:none;stroke:#000000;stroke-dasharray:1.000000,3.000000;stroke-dashoffset:0.0;stroke-width:0.5;"/>
     </g>
     <g id="line2d_2">
      <defs>
       <path d="
M0 0
L0 -4" id="m65466783c8" style="stroke:#ffffff;stroke-width:0.5;"/>
      </defs>
      <g>
       <use style="fill:#ffffff;stroke:#ffffff;stroke-width:0.5;" x="185.122055105" xlink:href="#m65466783c8" y="227.471503376"/>
      </g>
     </g>
     <g id="line2d_3">
      <defs>
       <path d="
M0 0
L0 4" id="m63777a1061" style="stroke:#ffffff;stroke-width:0.5;"/>
      </defs>
      <g>
       <use style="fill:#ffffff;stroke:#ffffff;stroke-width:0.5;" x="185.122055105" xlink:href="#m63777a1061" y="2.53700787402"/>
      </g>
     </g>
     <g id="text_1">
      <!-- $10^{-6}$ -->
      <defs>
       <path d="
M10.2031 23
Q9.375 23 8.82812 23.625
Q8.29688 24.2656 8.29688 25
Q8.29688 25.7344 8.82812 26.3594
Q9.375 27 10.2031 27
L67.5781 27
Q68.3594 27 68.875 26.3594
Q69.3906 25.7344 69.3906 25
Q69.3906 24.2656 68.875 23.625
Q68.3594 23 67.5781 23
z
" id="Cmsy10-a1"/>
       <path d="
M9.28125 0
L9.28125 3.51562
Q21.7812 3.51562 21.7812 6.6875
L21.7812 59.1875
Q16.6094 56.6875 8.6875 56.6875
L8.6875 60.2031
Q20.9531 60.2031 27.2031 66.6094
L28.6094 66.6094
Q28.9531 66.6094 29.2656 66.3281
Q29.5938 66.0625 29.5938 65.7188
L29.5938 6.6875
Q29.5938 3.51562 42.0938 3.51562
L42.0938 0
z
" id="Cmr10-31"/>
       <path d="
M25 -2.20312
Q12.75 -2.20312 8.32812 7.875
Q3.90625 17.9688 3.90625 31.8906
Q3.90625 40.5781 5.48438 48.2344
Q7.07812 55.9062 11.7812 61.25
Q16.5 66.6094 25 66.6094
Q31.5938 66.6094 35.7812 63.375
Q39.9844 60.1562 42.1875 55.0469
Q44.3906 49.9531 45.1875 44.1094
Q46 38.2812 46 31.8906
Q46 23.2969 44.4062 15.7969
Q42.8281 8.29688 38.1875 3.04688
Q33.5469 -2.20312 25 -2.20312
M25 0.390625
Q30.5625 0.390625 33.2969 6.09375
Q36.0312 11.8125 36.6719 18.75
Q37.3125 25.6875 37.3125 33.5
Q37.3125 41.0156 36.6719 47.3594
Q36.0312 53.7188 33.3125 58.8594
Q30.6094 64.0156 25 64.0156
Q19.3438 64.0156 16.6094 58.8281
Q13.875 53.6562 13.2344 47.3281
Q12.5938 41.0156 12.5938 33.5
Q12.5938 27.9375 12.8594 23
Q13.1406 18.0625 14.3125 12.8125
Q15.4844 7.5625 18.0938 3.96875
Q20.7031 0.390625 25 0.390625" id="Cmr10-30"/>
       <path d="
M25 -2.20312
Q18.7969 -2.20312 14.6406 1.09375
Q10.5 4.39062 8.21875 9.64062
Q5.95312 14.8906 5.07812 20.6562
Q4.20312 26.4219 4.20312 32.3281
Q4.20312 40.2344 7.28125 48.1875
Q10.3594 56.1562 16.3281 61.375
Q22.3125 66.6094 30.5156 66.6094
Q33.9375 66.6094 36.8906 65.3125
Q39.8438 64.0156 41.5312 61.5
Q43.2188 58.9844 43.2188 55.4219
Q43.2188 53.375 41.8281 51.9844
Q40.4375 50.5938 38.375 50.5938
Q36.4219 50.5938 35 52
Q33.5938 53.4219 33.5938 55.4219
Q33.5938 57.375 35 58.7812
Q36.4219 60.2031 38.375 60.2031
L38.9219 60.2031
Q37.6406 62.0156 35.3281 62.8594
Q33.0156 63.7188 30.5156 63.7188
Q27.4844 63.7188 24.9219 62.3906
Q22.3594 61.0781 20.3125 58.8281
Q18.2656 56.5938 16.8906 53.875
Q15.5312 51.1719 14.7656 47.7031
Q14.0156 44.2344 13.8125 41.2031
Q13.625 38.1875 13.625 33.5938
Q15.375 37.7031 18.5938 40.3125
Q21.8281 42.9219 25.875 42.9219
Q30.3281 42.9219 33.9844 41.1094
Q37.6406 39.3125 40.2812 36.1094
Q42.9219 32.9062 44.3125 28.7969
Q45.7031 24.7031 45.7031 20.5156
Q45.7031 14.6562 43.0938 9.34375
Q40.4844 4.04688 35.7344 0.921875
Q31 -2.20312 25 -2.20312
M25 0.984375
Q28.8594 0.984375 31.2031 2.73438
Q33.5469 4.5 34.6406 7.39062
Q35.75 10.2969 36.0156 13.25
Q36.2812 16.2188 36.2812 20.5156
Q36.2812 26.1719 35.7344 30.1719
Q35.2031 34.1875 32.8125 37.2344
Q30.4219 40.2812 25.4844 40.2812
Q21.4375 40.2812 18.8281 37.5469
Q16.2188 34.8125 15.0156 30.6406
Q13.8125 26.4688 13.8125 22.6094
Q13.8125 21.2969 13.9219 20.6094
Q13.9219 20.4531 13.8906 20.3594
Q13.875 20.2656 13.8125 20.125
Q13.8125 15.8281 14.6875 11.4219
Q15.5781 7.03125 18.0625 4
Q20.5625 0.984375 25 0.984375" id="Cmr10-36"/>
      </defs>
      <g transform="translate(176.842055105 237.550253376)scale(0.08 -0.08)">
       <use transform="translate(0.0 0.8578125)" xlink:href="#Cmr10-31"/>
       <use transform="translate(50.0 0.8578125)" xlink:href="#Cmr10-30"/>
       <use transform="translate(100.0 43.3734375)scale(0.7)" xlink:href="#Cmsy10-a1"/>
       <use transform="translate(154.379882812 43.3734375)scale(0.7)" xlink:href="#Cmr10-36"/>
      </g>
     </g>
    </g>
    <g id="xtick_2">
     <g id="line2d_4">
      <path clip-path="url(#pf15181884a)" d="
M317.339 227.472
L317.339 2.53701" style="fill:none;stroke:#000000;stroke-dasharray:1.000000,3.000000;stroke-dashoffset:0.0;stroke-width:0.5;"/>
     </g>
     <g id="line2d_5">
      <g>
       <use style="fill:#ffffff;stroke:#ffffff;stroke-width:0.5;" x="317.338508078" xlink:href="#m65466783c8" y="227.471503376"/>
      </g>
     </g>
     <g id="line2d_6">
      <g>
       <use style="fill:#ffffff;stroke:#ffffff;stroke-width:0.5;" x="317.338508078" xlink:href="#m63777a1061" y="2.53700787402"/>
      </g>
     </g>
     <g id="text_2">
      <!-- $10^{-5}$ -->
      <defs>
       <path d="
M8.6875 11.375
Q9.71875 8.45312 11.8438 6.04688
Q13.9688 3.65625 16.875 2.3125
Q19.7812 0.984375 22.9062 0.984375
Q30.125 0.984375 32.8594 6.59375
Q35.5938 12.2031 35.5938 20.2188
Q35.5938 23.6875 35.4688 26.0469
Q35.3594 28.4219 34.8125 30.6094
Q33.8906 34.125 31.5625 36.7656
Q29.25 39.4062 25.875 39.4062
Q22.5156 39.4062 20.0938 38.375
Q17.6719 37.3594 16.1562 35.9844
Q14.6562 34.625 13.4844 33.1094
Q12.3125 31.5938 12.0156 31.5
L10.8906 31.5
Q10.6406 31.5 10.2656 31.8125
Q9.90625 32.125 9.90625 32.4219
L9.90625 65.8281
Q9.90625 66.0625 10.2188 66.3281
Q10.5469 66.6094 10.8906 66.6094
L11.1875 66.6094
Q17.9219 63.375 25.4844 63.375
Q32.9062 63.375 39.7969 66.6094
L40.0938 66.6094
Q40.4375 66.6094 40.7188 66.3594
Q41.0156 66.1094 41.0156 65.8281
L41.0156 64.8906
Q41.0156 64.4062 40.8281 64.4062
Q37.4062 59.8594 32.25 57.3125
Q27.0938 54.7812 21.5781 54.7812
Q17.5781 54.7812 13.375 55.9062
L13.375 37.0156
Q16.7031 39.7031 19.3125 40.8438
Q21.9219 42 25.9844 42
Q31.5 42 35.8594 38.8125
Q40.2344 35.6406 42.5781 30.5312
Q44.9219 25.4375 44.9219 20.125
Q44.9219 14.1094 41.9688 8.98438
Q39.0156 3.85938 33.9375 0.828125
Q28.8594 -2.20312 22.9062 -2.20312
Q17.9688 -2.20312 13.8438 0.328125
Q9.71875 2.875 7.34375 7.17188
Q4.98438 11.4688 4.98438 16.3125
Q4.98438 18.5625 6.4375 19.9688
Q7.90625 21.3906 10.1094 21.3906
Q12.3125 21.3906 13.7969 19.9375
Q15.2812 18.5 15.2812 16.3125
Q15.2812 14.1562 13.7969 12.6719
Q12.3125 11.1875 10.1094 11.1875
Q9.76562 11.1875 9.32812 11.25
Q8.89062 11.3281 8.6875 11.375" id="Cmr10-35"/>
      </defs>
      <g transform="translate(309.058508078 237.550253376)scale(0.08 -0.08)">
       <use transform="translate(0.0 0.8578125)" xlink:href="#Cmr10-31"/>
       <use transform="translate(50.0 0.8578125)" xlink:href="#Cmr10-30"/>
       <use transform="translate(100.0 43.3734375)scale(0.7)" xlink:href="#Cmsy10-a1"/>
       <use transform="translate(154.379882812 43.3734375)scale(0.7)" xlink:href="#Cmr10-35"/>
      </g>
     </g>
    </g>
    <g id="xtick_3">
     <g id="line2d_7">
      <defs>
       <path d="
M0 0
L0 -2" id="md32fcee4df" style="stroke:#ffffff;stroke-width:0.5;"/>
      </defs>
      <g>
       <use style="fill:#ffffff;stroke:#ffffff;stroke-width:0.5;" x="52.9056021322" xlink:href="#md32fcee4df" y="227.471503376"/>
      </g>
     </g>
     <g id="line2d_8">
      <defs>
       <path d="
M0 0
L0 2" id="m1489f9f573" style="stroke:#ffffff;stroke-width:0.5;"/>
      </defs>
      <g>
       <use style="fill:#ffffff;stroke:#ffffff;stroke-width:0.5;" x="52.9056021322" xlink:href="#m1489f9f573" y="2.53700787402"/>
      </g>
     </g>
    </g>
    <g id="xtick_4">
     <g id="line2d_9">
      <g>
       <use style="fill:#ffffff;stroke:#ffffff;stroke-width:0.5;" x="185.122055105" xlink:href="#md32fcee4df" y="227.471503376"/>
      </g>
     </g>
     <g id="line2d_10">
      <g>
       <use style="fill:#ffffff;stroke:#ffffff;stroke-width:0.5;" x="185.122055105" xlink:href="#m1489f9f573" y="2.53700787402"/>
      </g>
     </g>
    </g>
    <g id="xtick_5">
     <g id="line2d_11">
      <g>
       <use style="fill:#ffffff;stroke:#ffffff;stroke-width:0.5;" x="317.338508078" xlink:href="#md32fcee4df" y="227.471503376"/>
      </g>
     </g>
     <g id="line2d_12">
      <g>
       <use style="fill:#ffffff;stroke:#ffffff;stroke-width:0.5;" x="317.338508078" xlink:href="#m1489f9f573" y="2.53700787402"/>
      </g>
     </g>
    </g>
    <g id="text_3">
     <!-- Id(A) -->
     <defs>
      <path d="
M8.01562 75.875
L15.8281 75.875
Q23.1406 64.3594 26.7812 53.3125
Q30.4219 42.2812 30.4219 31.3906
Q30.4219 20.4531 26.7812 9.375
Q23.1406 -1.70312 15.8281 -13.1875
L8.01562 -13.1875
Q14.5 -2 17.7031 9.0625
Q20.9062 20.125 20.9062 31.3906
Q20.9062 42.6719 17.7031 53.6562
Q14.5 64.6562 8.01562 75.875" id="BitstreamVeraSans-Roman-29"/>
      <path d="
M45.4062 46.3906
L45.4062 75.9844
L54.3906 75.9844
L54.3906 0
L45.4062 0
L45.4062 8.20312
Q42.5781 3.32812 38.25 0.953125
Q33.9375 -1.42188 27.875 -1.42188
Q17.9688 -1.42188 11.7344 6.48438
Q5.51562 14.4062 5.51562 27.2969
Q5.51562 40.1875 11.7344 48.0938
Q17.9688 56 27.875 56
Q33.9375 56 38.25 53.625
Q42.5781 51.2656 45.4062 46.3906
M14.7969 27.2969
Q14.7969 17.3906 18.875 11.75
Q22.9531 6.10938 30.0781 6.10938
Q37.2031 6.10938 41.2969 11.75
Q45.4062 17.3906 45.4062 27.2969
Q45.4062 37.2031 41.2969 42.8438
Q37.2031 48.4844 30.0781 48.4844
Q22.9531 48.4844 18.875 42.8438
Q14.7969 37.2031 14.7969 27.2969" id="BitstreamVeraSans-Roman-64"/>
      <path d="
M34.1875 63.1875
L20.7969 26.9062
L47.6094 26.9062
z

M28.6094 72.9062
L39.7969 72.9062
L67.5781 0
L57.3281 0
L50.6875 18.7031
L17.8281 18.7031
L11.1875 0
L0.78125 0
z
" id="BitstreamVeraSans-Roman-41"/>
      <path d="
M9.8125 72.9062
L19.6719 72.9062
L19.6719 0
L9.8125 0
z
" id="BitstreamVeraSans-Roman-49"/>
      <path d="
M31 75.875
Q24.4688 64.6562 21.2812 53.6562
Q18.1094 42.6719 18.1094 31.3906
Q18.1094 20.125 21.3125 9.0625
Q24.5156 -2 31 -13.1875
L23.1875 -13.1875
Q15.875 -1.70312 12.2344 9.375
Q8.59375 20.4531 8.59375 31.3906
Q8.59375 42.2812 12.2031 53.3125
Q15.8281 64.3594 23.1875 75.875
z
" id="BitstreamVeraSans-Roman-28"/>
     </defs>
     <g transform="translate(221.921956787 252.572284626)scale(0.11 -0.11)">
      <use xlink:href="#BitstreamVeraSans-Roman-49"/>
      <use x="29.4921875" xlink:href="#BitstreamVeraSans-Roman-64"/>
      <use x="92.96875" xlink:href="#BitstreamVeraSans-Roman-28"/>
      <use x="131.982421875" xlink:href="#BitstreamVeraSans-Roman-41"/>
      <use x="200.390625" xlink:href="#BitstreamVeraSans-Roman-29"/>
     </g>
    </g>
   </g>
   <g id="matplotlib.axis_2">
    <g id="ytick_1">
     <g id="line2d_13">
      <path clip-path="url(#pf15181884a)" d="
M38.9903 163.205
L429.165 163.205" style="fill:none;stroke:#000000;stroke-dasharray:1.000000,3.000000;stroke-dashoffset:0.0;stroke-width:0.5;"/>
     </g>
     <g id="line2d_14">
      <defs>
       <path d="
M0 0
L4 0" id="m0a16658aff" style="stroke:#ffffff;stroke-width:0.5;"/>
      </defs>
      <g>
       <use style="fill:#ffffff;stroke:#ffffff;stroke-width:0.5;" x="38.9902779935" xlink:href="#m0a16658aff" y="163.204504661"/>
      </g>
     </g>
     <g id="line2d_15">
      <defs>
       <path d="
M0 0
L-4 0" id="me3d7da525a" style="stroke:#ffffff;stroke-width:0.5;"/>
      </defs>
      <g>
       <use style="fill:#ffffff;stroke:#ffffff;stroke-width:0.5;" x="429.165354331" xlink:href="#me3d7da525a" y="163.204504661"/>
      </g>
     </g>
     <g id="text_4">
      <!-- $10^{-6}$ -->
      <g transform="translate(18.4302779935 165.412004661)scale(0.08 -0.08)">
       <use transform="translate(0.0 0.8578125)" xlink:href="#Cmr10-31"/>
       <use transform="translate(50.0 0.8578125)" xlink:href="#Cmr10-30"/>
       <use transform="translate(100.0 43.3734375)scale(0.7)" xlink:href="#Cmsy10-a1"/>
       <use transform="translate(154.379882812 43.3734375)scale(0.7)" xlink:href="#Cmr10-36"/>
      </g>
     </g>
    </g>
    <g id="ytick_2">
     <g id="line2d_16">
      <path clip-path="url(#pf15181884a)" d="
M38.9903 82.8708
L429.165 82.8708" style="fill:none;stroke:#000000;stroke-dasharray:1.000000,3.000000;stroke-dashoffset:0.0;stroke-width:0.5;"/>
     </g>
     <g id="line2d_17">
      <g>
       <use style="fill:#ffffff;stroke:#ffffff;stroke-width:0.5;" x="38.9902779935" xlink:href="#m0a16658aff" y="82.8707562676"/>
      </g>
     </g>
     <g id="line2d_18">
      <g>
       <use style="fill:#ffffff;stroke:#ffffff;stroke-width:0.5;" x="429.165354331" xlink:href="#me3d7da525a" y="82.8707562676"/>
      </g>
     </g>
     <g id="text_5">
      <!-- $10^{-5}$ -->
      <g transform="translate(18.4302779935 85.0782562676)scale(0.08 -0.08)">
       <use transform="translate(0.0 0.8578125)" xlink:href="#Cmr10-31"/>
       <use transform="translate(50.0 0.8578125)" xlink:href="#Cmr10-30"/>
       <use transform="translate(100.0 43.3734375)scale(0.7)" xlink:href="#Cmsy10-a1"/>
       <use transform="translate(154.379882812 43.3734375)scale(0.7)" xlink:href="#Cmr10-35"/>
      </g>
     </g>
    </g>
    <g id="ytick_3">
     <g id="line2d_19">
      <defs>
       <path d="
M0 0
L2 0" id="m48f4b52afc" style="stroke:#ffffff;stroke-width:0.5;"/>
      </defs>
      <g>
       <use style="fill:#ffffff;stroke:#ffffff;stroke-width:0.5;" x="38.9902779935" xlink:href="#m48f4b52afc" y="163.204504661"/>
      </g>
     </g>
     <g id="line2d_20">
      <defs>
       <path d="
M0 0
L-2 0" id="maa948359a5" style="stroke:#ffffff;stroke-width:0.5;"/>
      </defs>
      <g>
       <use style="fill:#ffffff;stroke:#ffffff;stroke-width:0.5;" x="429.165354331" xlink:href="#maa948359a5" y="163.204504661"/>
      </g>
     </g>
    </g>
    <g id="ytick_4">
     <g id="line2d_21">
      <g>
       <use style="fill:#ffffff;stroke:#ffffff;stroke-width:0.5;" x="38.9902779935" xlink:href="#m48f4b52afc" y="82.8707562676"/>
      </g>
     </g>
     <g id="line2d_22">
      <g>
       <use style="fill:#ffffff;stroke:#ffffff;stroke-width:0.5;" x="429.165354331" xlink:href="#maa948359a5" y="82.8707562676"/>
      </g>
     </g>
    </g>
    <g id="ytick_5">
     <g id="line2d_23">
      <g>
       <use style="fill:#ffffff;stroke:#ffffff;stroke-width:0.5;" x="38.9902779935" xlink:href="#m48f4b52afc" y="2.53700787402"/>
      </g>
     </g>
     <g id="line2d_24">
      <g>
       <use style="fill:#ffffff;stroke:#ffffff;stroke-width:0.5;" x="429.165354331" xlink:href="#maa948359a5" y="2.53700787402"/>
      </g>
     </g>
    </g>
    <g id="text_6">
     <!-- Derivative(Id) -->
     <defs>
      <path d="
M41.1094 46.2969
Q39.5938 47.1719 37.8125 47.5781
Q36.0312 48 33.8906 48
Q26.2656 48 22.1875 43.0469
Q18.1094 38.0938 18.1094 28.8125
L18.1094 0
L9.07812 0
L9.07812 54.6875
L18.1094 54.6875
L18.1094 46.1875
Q20.9531 51.1719 25.4844 53.5781
Q30.0312 56 36.5312 56
Q37.4531 56 38.5781 55.875
Q39.7031 55.7656 41.0625 55.5156
z
" id="BitstreamVeraSans-Roman-72"/>
      <path d="
M2.98438 54.6875
L12.5 54.6875
L29.5938 8.79688
L46.6875 54.6875
L56.2031 54.6875
L35.6875 0
L23.4844 0
z
" id="BitstreamVeraSans-Roman-76"/>
      <path d="
M19.6719 64.7969
L19.6719 8.10938
L31.5938 8.10938
Q46.6875 8.10938 53.6875 14.9375
Q60.6875 21.7812 60.6875 36.5312
Q60.6875 51.1719 53.6875 57.9844
Q46.6875 64.7969 31.5938 64.7969
z

M9.8125 72.9062
L30.0781 72.9062
Q51.2656 72.9062 61.1719 64.0938
Q71.0938 55.2812 71.0938 36.5312
Q71.0938 17.6719 61.125 8.82812
Q51.1719 0 30.0781 0
L9.8125 0
z
" id="BitstreamVeraSans-Roman-44"/>
      <path d="
M9.42188 54.6875
L18.4062 54.6875
L18.4062 0
L9.42188 0
z

M9.42188 75.9844
L18.4062 75.9844
L18.4062 64.5938
L9.42188 64.5938
z
" id="BitstreamVeraSans-Roman-69"/>
      <path d="
M56.2031 29.5938
L56.2031 25.2031
L14.8906 25.2031
Q15.4844 15.9219 20.4844 11.0625
Q25.4844 6.20312 34.4219 6.20312
Q39.5938 6.20312 44.4531 7.46875
Q49.3125 8.73438 54.1094 11.2812
L54.1094 2.78125
Q49.2656 0.734375 44.1875 -0.34375
Q39.1094 -1.42188 33.8906 -1.42188
Q20.7969 -1.42188 13.1562 6.1875
Q5.51562 13.8125 5.51562 26.8125
Q5.51562 40.2344 12.7656 48.1094
Q20.0156 56 32.3281 56
Q43.3594 56 49.7812 48.8906
Q56.2031 41.7969 56.2031 29.5938
M47.2188 32.2344
Q47.125 39.5938 43.0938 43.9844
Q39.0625 48.3906 32.4219 48.3906
Q24.9062 48.3906 20.3906 44.1406
Q15.875 39.8906 15.1875 32.1719
z
" id="BitstreamVeraSans-Roman-65"/>
      <path d="
M18.3125 70.2188
L18.3125 54.6875
L36.8125 54.6875
L36.8125 47.7031
L18.3125 47.7031
L18.3125 18.0156
Q18.3125 11.3281 20.1406 9.42188
Q21.9688 7.51562 27.5938 7.51562
L36.8125 7.51562
L36.8125 0
L27.5938 0
Q17.1875 0 13.2344 3.875
Q9.28125 7.76562 9.28125 18.0156
L9.28125 47.7031
L2.6875 47.7031
L2.6875 54.6875
L9.28125 54.6875
L9.28125 70.2188
z
" id="BitstreamVeraSans-Roman-74"/>
      <path d="
M34.2812 27.4844
Q23.3906 27.4844 19.1875 25
Q14.9844 22.5156 14.9844 16.5
Q14.9844 11.7188 18.1406 8.90625
Q21.2969 6.10938 26.7031 6.10938
Q34.1875 6.10938 38.7031 11.4062
Q43.2188 16.7031 43.2188 25.4844
L43.2188 27.4844
z

M52.2031 31.2031
L52.2031 0
L43.2188 0
L43.2188 8.29688
Q40.1406 3.32812 35.5469 0.953125
Q30.9531 -1.42188 24.3125 -1.42188
Q15.9219 -1.42188 10.9531 3.29688
Q6 8.01562 6 15.9219
Q6 25.1406 12.1719 29.8281
Q18.3594 34.5156 30.6094 34.5156
L43.2188 34.5156
L43.2188 35.4062
Q43.2188 41.6094 39.1406 45
Q35.0625 48.3906 27.6875 48.3906
Q23 48.3906 18.5469 47.2656
Q14.1094 46.1406 10.0156 43.8906
L10.0156 52.2031
Q14.9375 54.1094 19.5781 55.0469
Q24.2188 56 28.6094 56
Q40.4844 56 46.3438 49.8438
Q52.2031 43.7031 52.2031 31.2031" id="BitstreamVeraSans-Roman-61"/>
     </defs>
     <g transform="translate(11.1426217435 151.7554275)rotate(-90.0)scale(0.11 -0.11)">
      <use xlink:href="#BitstreamVeraSans-Roman-44"/>
      <use x="77.001953125" xlink:href="#BitstreamVeraSans-Roman-65"/>
      <use x="138.525390625" xlink:href="#BitstreamVeraSans-Roman-72"/>
      <use x="179.638671875" xlink:href="#BitstreamVeraSans-Roman-69"/>
      <use x="207.421875" xlink:href="#BitstreamVeraSans-Roman-76"/>
      <use x="266.6015625" xlink:href="#BitstreamVeraSans-Roman-61"/>
      <use x="327.880859375" xlink:href="#BitstreamVeraSans-Roman-74"/>
      <use x="367.08984375" xlink:href="#BitstreamVeraSans-Roman-69"/>
      <use x="394.873046875" xlink:href="#BitstreamVeraSans-Roman-76"/>
      <use x="454.052734375" xlink:href="#BitstreamVeraSans-Roman-65"/>
      <use x="515.576171875" xlink:href="#BitstreamVeraSans-Roman-28"/>
      <use x="554.58984375" xlink:href="#BitstreamVeraSans-Roman-49"/>
      <use x="584.08203125" xlink:href="#BitstreamVeraSans-Roman-64"/>
      <use x="647.55859375" xlink:href="#BitstreamVeraSans-Roman-29"/>
     </g>
    </g>
   </g>
   <g id="line2d_25">
    <path clip-path="url(#pf15181884a)" d="
M38.9903 209.887
L58.0066 209.887
L78.8726 195.401
L100.366 182.439
L121.476 169.848
L142.557 155.65
L164.853 140.176
L188.311 123.807
L213.201 107.07
L239.029 92.0892
L263.77 79.5043
L286.648 69.2731
L307.09 61.854
L324.564 57.9079
L338.67 56.0567
L350.484 55.3215
L360.238 55.9114
L368.341 57.7867
L374.935 61.6033
L380.09 67.7311
L383.941 67.7311" style="fill:none;stroke:#00bfff;stroke-linecap:round;stroke-width:2.0;"/>
   </g>
   <g id="line2d_26">
    <path clip-path="url(#pf15181884a)" d="
M45.6774 205.063
L65.5623 205.063
L86.1924 191.018
L107.743 177.718
L129.033 165.128
L150.136 151.813
L171.754 137.246
L194.392 122.132
L217.778 106.368
L242.272 90.717
L267.001 76.7491
L290.623 64.7319
L312.607 54.9263
L332.249 48.8586
L348.342 45.0455
L362.183 42.3418
L373.833 41.6385
L383.436 42.6702
L391.279 44.8533
L397.706 48.3385
L402.824 48.3385" style="fill:none;stroke:#008000;stroke-linecap:round;stroke-width:2.5;"/>
   </g>
   <g id="patch_3">
    <path d="
M38.9903 2.53701
L429.165 2.53701" style="fill:none;stroke:#000000;"/>
   </g>
   <g id="patch_4">
    <path d="
M429.165 227.472
L429.165 2.53701" style="fill:none;stroke:#000000;"/>
   </g>
   <g id="patch_5">
    <path d="
M38.9903 227.472
L429.165 227.472" style="fill:none;stroke:#000000;"/>
   </g>
   <g id="patch_6">
    <path d="
M38.9903 227.472
L38.9903 2.53701" style="fill:none;stroke:#000000;"/>
   </g>
   <g id="line2d_27">
    <path clip-path="url(#pf15181884a)" d="
M51.9339 202.185
L71.4415 202.185
L91.6842 187.182
L113.848 173.272
L135.488 160.59
L156.956 147.334
L178.693 133.108
L201.207 118.502
L224.189 103.267
L248.125 87.9708
L272.331 73.8634
L295.861 60.8558
L318.515 50.4751
L338.563 42.5632
L356.356 35.9595
L372.165 31.0437
L385.868 27.7155
L397.739 25.5785
L407.992 25.0642
L416.557 26.4949
L423.552 26.4949" style="fill:none;stroke:#b22222;stroke-linecap:round;stroke-width:3.0;"/>
   </g>
   <g id="line2d_28">
    <path clip-path="url(#pf15181884a)" d="
M57.5 202.267
L74.9808 202.267
L94.4737 187.201
L115.551 173.312
L136.771 160.054
L158.229 146.357
L180.148 132.401
L202.422 117.975
L225.324 102.647
L249.232 87.4485
L273.31 73.1835
L296.964 60.0517
L319.684 49.5187
L339.924 41.449
L357.847 34.3715
L374.084 28.7593
L388.282 24.4159
L400.945 21.4616
L411.83 20.0329
L421.227 19.8395
L429.165 19.8395" style="fill:none;stroke:#808000;stroke-linecap:round;stroke-width:4.0;"/>
   </g>
   <g id="legend_1">
    <g id="patch_7">
     <path d="
M42.9903 55.907
L115.459 55.907
L115.459 6.53701
L42.9903 6.53701
L42.9903 55.907
z
" style="fill:#ffffff;stroke:#000000;"/>
    </g>
    <g id="line2d_29">
     <path d="
M48.5903 13.0158
L59.7903 13.0158" style="fill:none;stroke:#00bfff;stroke-linecap:round;stroke-width:2.0;"/>
    </g>
    <g id="line2d_30"/>
    <g id="text_7">
     <!-- Vds=0.5v -->
     <defs>
      <path d="
M31.7812 66.4062
Q24.1719 66.4062 20.3281 58.9062
Q16.5 51.4219 16.5 36.375
Q16.5 21.3906 20.3281 13.8906
Q24.1719 6.39062 31.7812 6.39062
Q39.4531 6.39062 43.2812 13.8906
Q47.125 21.3906 47.125 36.375
Q47.125 51.4219 43.2812 58.9062
Q39.4531 66.4062 31.7812 66.4062
M31.7812 74.2188
Q44.0469 74.2188 50.5156 64.5156
Q56.9844 54.8281 56.9844 36.375
Q56.9844 17.9688 50.5156 8.26562
Q44.0469 -1.42188 31.7812 -1.42188
Q19.5312 -1.42188 13.0625 8.26562
Q6.59375 17.9688 6.59375 36.375
Q6.59375 54.8281 13.0625 64.5156
Q19.5312 74.2188 31.7812 74.2188" id="BitstreamVeraSans-Roman-30"/>
      <path d="
M28.6094 0
L0.78125 72.9062
L11.0781 72.9062
L34.1875 11.5312
L57.3281 72.9062
L67.5781 72.9062
L39.7969 0
z
" id="BitstreamVeraSans-Roman-56"/>
      <path d="
M10.7969 72.9062
L49.5156 72.9062
L49.5156 64.5938
L19.8281 64.5938
L19.8281 46.7344
Q21.9688 47.4688 24.1094 47.8281
Q26.2656 48.1875 28.4219 48.1875
Q40.625 48.1875 47.75 41.5
Q54.8906 34.8125 54.8906 23.3906
Q54.8906 11.625 47.5625 5.09375
Q40.2344 -1.42188 26.9062 -1.42188
Q22.3125 -1.42188 17.5469 -0.640625
Q12.7969 0.140625 7.71875 1.70312
L7.71875 11.625
Q12.1094 9.23438 16.7969 8.0625
Q21.4844 6.89062 26.7031 6.89062
Q35.1562 6.89062 40.0781 11.3281
Q45.0156 15.7656 45.0156 23.3906
Q45.0156 31 40.0781 35.4375
Q35.1562 39.8906 26.7031 39.8906
Q22.75 39.8906 18.8125 39.0156
Q14.8906 38.1406 10.7969 36.2812
z
" id="BitstreamVeraSans-Roman-35"/>
      <path d="
M10.6875 12.4062
L21 12.4062
L21 0
L10.6875 0
z
" id="BitstreamVeraSans-Roman-2e"/>
      <path d="
M10.5938 45.4062
L73.1875 45.4062
L73.1875 37.2031
L10.5938 37.2031
z

M10.5938 25.4844
L73.1875 25.4844
L73.1875 17.1875
L10.5938 17.1875
z
" id="BitstreamVeraSans-Roman-3d"/>
      <path d="
M44.2812 53.0781
L44.2812 44.5781
Q40.4844 46.5312 36.375 47.5
Q32.2812 48.4844 27.875 48.4844
Q21.1875 48.4844 17.8438 46.4375
Q14.5 44.3906 14.5 40.2812
Q14.5 37.1562 16.8906 35.375
Q19.2812 33.5938 26.5156 31.9844
L29.5938 31.2969
Q39.1562 29.25 43.1875 25.5156
Q47.2188 21.7812 47.2188 15.0938
Q47.2188 7.46875 41.1875 3.01562
Q35.1562 -1.42188 24.6094 -1.42188
Q20.2188 -1.42188 15.4531 -0.5625
Q10.6875 0.296875 5.42188 2
L5.42188 11.2812
Q10.4062 8.6875 15.2344 7.39062
Q20.0625 6.10938 24.8125 6.10938
Q31.1562 6.10938 34.5625 8.28125
Q37.9844 10.4531 37.9844 14.4062
Q37.9844 18.0625 35.5156 20.0156
Q33.0625 21.9688 24.7031 23.7812
L21.5781 24.5156
Q13.2344 26.2656 9.51562 29.9062
Q5.8125 33.5469 5.8125 39.8906
Q5.8125 47.6094 11.2812 51.7969
Q16.75 56 26.8125 56
Q31.7812 56 36.1719 55.2656
Q40.5781 54.5469 44.2812 53.0781" id="BitstreamVeraSans-Roman-73"/>
     </defs>
     <g transform="translate(68.5902779935 15.815757874)scale(0.08 -0.08)">
      <use xlink:href="#BitstreamVeraSans-Roman-56"/>
      <use x="68.408203125" xlink:href="#BitstreamVeraSans-Roman-64"/>
      <use x="131.884765625" xlink:href="#BitstreamVeraSans-Roman-73"/>
      <use x="183.984375" xlink:href="#BitstreamVeraSans-Roman-3d"/>
      <use x="267.7734375" xlink:href="#BitstreamVeraSans-Roman-30"/>
      <use x="331.396484375" xlink:href="#BitstreamVeraSans-Roman-2e"/>
      <use x="363.18359375" xlink:href="#BitstreamVeraSans-Roman-35"/>
      <use x="426.806640625" xlink:href="#BitstreamVeraSans-Roman-76"/>
     </g>
    </g>
    <g id="line2d_31">
     <path d="
M48.5903 24.7583
L59.7903 24.7583" style="fill:none;stroke:#008000;stroke-linecap:round;stroke-width:2.5;"/>
    </g>
    <g id="line2d_32"/>
    <g id="text_8">
     <!-- Vds=0.75v -->
     <defs>
      <path d="
M8.20312 72.9062
L55.0781 72.9062
L55.0781 68.7031
L28.6094 0
L18.3125 0
L43.2188 64.5938
L8.20312 64.5938
z
" id="BitstreamVeraSans-Roman-37"/>
     </defs>
     <g transform="translate(68.5902779935 27.558257874)scale(0.08 -0.08)">
      <use xlink:href="#BitstreamVeraSans-Roman-56"/>
      <use x="68.408203125" xlink:href="#BitstreamVeraSans-Roman-64"/>
      <use x="131.884765625" xlink:href="#BitstreamVeraSans-Roman-73"/>
      <use x="183.984375" xlink:href="#BitstreamVeraSans-Roman-3d"/>
      <use x="267.7734375" xlink:href="#BitstreamVeraSans-Roman-30"/>
      <use x="331.396484375" xlink:href="#BitstreamVeraSans-Roman-2e"/>
      <use x="363.18359375" xlink:href="#BitstreamVeraSans-Roman-37"/>
      <use x="426.806640625" xlink:href="#BitstreamVeraSans-Roman-35"/>
      <use x="490.4296875" xlink:href="#BitstreamVeraSans-Roman-76"/>
     </g>
    </g>
    <g id="line2d_33">
     <path d="
M48.5903 36.5008
L59.7903 36.5008" style="fill:none;stroke:#b22222;stroke-linecap:round;stroke-width:3.0;"/>
    </g>
    <g id="line2d_34"/>
    <g id="text_9">
     <!-- Vds=1.25v -->
     <defs>
      <path d="
M19.1875 8.29688
L53.6094 8.29688
L53.6094 0
L7.32812 0
L7.32812 8.29688
Q12.9375 14.1094 22.625 23.8906
Q32.3281 33.6875 34.8125 36.5312
Q39.5469 41.8438 41.4219 45.5312
Q43.3125 49.2188 43.3125 52.7812
Q43.3125 58.5938 39.2344 62.25
Q35.1562 65.9219 28.6094 65.9219
Q23.9688 65.9219 18.8125 64.3125
Q13.6719 62.7031 7.8125 59.4219
L7.8125 69.3906
Q13.7656 71.7812 18.9375 73
Q24.125 74.2188 28.4219 74.2188
Q39.75 74.2188 46.4844 68.5469
Q53.2188 62.8906 53.2188 53.4219
Q53.2188 48.9219 51.5312 44.8906
Q49.8594 40.875 45.4062 35.4062
Q44.1875 33.9844 37.6406 27.2188
Q31.1094 20.4531 19.1875 8.29688" id="BitstreamVeraSans-Roman-32"/>
      <path d="
M12.4062 8.29688
L28.5156 8.29688
L28.5156 63.9219
L10.9844 60.4062
L10.9844 69.3906
L28.4219 72.9062
L38.2812 72.9062
L38.2812 8.29688
L54.3906 8.29688
L54.3906 0
L12.4062 0
z
" id="BitstreamVeraSans-Roman-31"/>
     </defs>
     <g transform="translate(68.5902779935 39.300757874)scale(0.08 -0.08)">
      <use xlink:href="#BitstreamVeraSans-Roman-56"/>
      <use x="68.408203125" xlink:href="#BitstreamVeraSans-Roman-64"/>
      <use x="131.884765625" xlink:href="#BitstreamVeraSans-Roman-73"/>
      <use x="183.984375" xlink:href="#BitstreamVeraSans-Roman-3d"/>
      <use x="267.7734375" xlink:href="#BitstreamVeraSans-Roman-31"/>
      <use x="331.396484375" xlink:href="#BitstreamVeraSans-Roman-2e"/>
      <use x="363.18359375" xlink:href="#BitstreamVeraSans-Roman-32"/>
      <use x="426.806640625" xlink:href="#BitstreamVeraSans-Roman-35"/>
      <use x="490.4296875" xlink:href="#BitstreamVeraSans-Roman-76"/>
     </g>
    </g>
    <g id="line2d_35">
     <path d="
M48.5903 48.2433
L59.7903 48.2433" style="fill:none;stroke:#808000;stroke-linecap:round;stroke-width:4.0;"/>
    </g>
    <g id="line2d_36"/>
    <g id="text_10">
     <!-- Vds=1.5v -->
     <g transform="translate(68.5902779935 51.043257874)scale(0.08 -0.08)">
      <use xlink:href="#BitstreamVeraSans-Roman-56"/>
      <use x="68.408203125" xlink:href="#BitstreamVeraSans-Roman-64"/>
      <use x="131.884765625" xlink:href="#BitstreamVeraSans-Roman-73"/>
      <use x="183.984375" xlink:href="#BitstreamVeraSans-Roman-3d"/>
      <use x="267.7734375" xlink:href="#BitstreamVeraSans-Roman-31"/>
      <use x="331.396484375" xlink:href="#BitstreamVeraSans-Roman-2e"/>
      <use x="363.18359375" xlink:href="#BitstreamVeraSans-Roman-35"/>
      <use x="426.806640625" xlink:href="#BitstreamVeraSans-Roman-76"/>
     </g>
    </g>
   </g>
  </g>
 </g>
 <defs>
  <clipPath id="pf15181884a">
   <rect height="224.934495502" width="390.175076337" x="38.9902779935" y="2.53700787402"/>
  </clipPath>
 </defs>
</svg>
