<?xml version="1.0" encoding="utf-8"?>
<svg xmlns="http://www.w3.org/2000/svg" xmlns:xlink="http://www.w3.org/1999/xlink" width="800" height="400" viewBox="0 0 800 400">
<defs>
  <clipPath id="clip00">
    <rect x="0" y="0" width="800" height="400"/>
  </clipPath>
</defs>
<polygon clip-path="url(#clip00)" points="
0,400 800,400 800,0 0,0 
  " fill="#ffffff" fill-opacity="1"/>
<defs>
  <clipPath id="clip01">
    <rect x="160" y="0" width="561" height="400"/>
  </clipPath>
</defs>
<polygon clip-path="url(#clip00)" points="
50.7108,361.8 796.063,361.8 796.063,3.93701 50.7108,3.93701 
  " fill="#ffffff" fill-opacity="1"/>
<defs>
  <clipPath id="clip02">
    <rect x="50" y="3" width="746" height="358"/>
  </clipPath>
</defs>
<polyline clip-path="url(#clip02)" style="stroke:#00002d; stroke-width:0.8; stroke-opacity:0.5; fill:none" stroke-dasharray="1, 2" points="
  133.528,356.432 133.528,9.30495 
  "/>
<polyline clip-path="url(#clip02)" style="stroke:#00002d; stroke-width:0.8; stroke-opacity:0.5; fill:none" stroke-dasharray="1, 2" points="
  299.162,356.432 299.162,9.30495 
  "/>
<polyline clip-path="url(#clip02)" style="stroke:#00002d; stroke-width:0.8; stroke-opacity:0.5; fill:none" stroke-dasharray="1, 2" points="
  464.795,356.432 464.795,9.30495 
  "/>
<polyline clip-path="url(#clip02)" style="stroke:#00002d; stroke-width:0.8; stroke-opacity:0.5; fill:none" stroke-dasharray="1, 2" points="
  630.429,356.432 630.429,9.30495 
  "/>
<polyline clip-path="url(#clip02)" style="stroke:#00002d; stroke-width:0.8; stroke-opacity:0.5; fill:none" stroke-dasharray="1, 2" points="
  796.063,356.432 796.063,9.30495 
  "/>
<polyline clip-path="url(#clip02)" style="stroke:#00002d; stroke-width:0.8; stroke-opacity:0.5; fill:none" stroke-dasharray="1, 2" points="
  61.8911,259.553 784.883,259.553 
  "/>
<polyline clip-path="url(#clip02)" style="stroke:#00002d; stroke-width:0.8; stroke-opacity:0.5; fill:none" stroke-dasharray="1, 2" points="
  61.8911,131.745 784.883,131.745 
  "/>
<polyline clip-path="url(#clip02)" style="stroke:#00002d; stroke-width:0.8; stroke-opacity:0.5; fill:none" stroke-dasharray="1, 2" points="
  61.8911,3.93701 784.883,3.93701 
  "/>
<polyline clip-path="url(#clip02)" style="stroke:#00002d; stroke-width:0.8; stroke-opacity:1; fill:none" points="
  50.7108,361.8 796.063,361.8 
  "/>
<polyline clip-path="url(#clip02)" style="stroke:#00002d; stroke-width:0.8; stroke-opacity:1; fill:none" points="
  50.7108,3.93701 796.063,3.93701 
  "/>
<polyline clip-path="url(#clip02)" style="stroke:#00002d; stroke-width:0.8; stroke-opacity:1; fill:none" points="
  133.528,361.8 133.528,356.432 
  "/>
<polyline clip-path="url(#clip02)" style="stroke:#00002d; stroke-width:0.8; stroke-opacity:1; fill:none" points="
  133.528,3.93701 133.528,9.30495 
  "/>
<polyline clip-path="url(#clip02)" style="stroke:#00002d; stroke-width:0.8; stroke-opacity:1; fill:none" points="
  299.162,361.8 299.162,356.432 
  "/>
<polyline clip-path="url(#clip02)" style="stroke:#00002d; stroke-width:0.8; stroke-opacity:1; fill:none" points="
  299.162,3.93701 299.162,9.30495 
  "/>
<polyline clip-path="url(#clip02)" style="stroke:#00002d; stroke-width:0.8; stroke-opacity:1; fill:none" points="
  464.795,361.8 464.795,356.432 
  "/>
<polyline clip-path="url(#clip02)" style="stroke:#00002d; stroke-width:0.8; stroke-opacity:1; fill:none" points="
  464.795,3.93701 464.795,9.30495 
  "/>
<polyline clip-path="url(#clip02)" style="stroke:#00002d; stroke-width:0.8; stroke-opacity:1; fill:none" points="
  630.429,361.8 630.429,356.432 
  "/>
<polyline clip-path="url(#clip02)" style="stroke:#00002d; stroke-width:0.8; stroke-opacity:1; fill:none" points="
  630.429,3.93701 630.429,9.30495 
  "/>
<polyline clip-path="url(#clip02)" style="stroke:#00002d; stroke-width:0.8; stroke-opacity:1; fill:none" points="
  796.063,361.8 796.063,356.432 
  "/>
<polyline clip-path="url(#clip02)" style="stroke:#00002d; stroke-width:0.8; stroke-opacity:1; fill:none" points="
  796.063,3.93701 796.063,9.30495 
  "/>
<polyline clip-path="url(#clip02)" style="stroke:#00002d; stroke-width:0.8; stroke-opacity:1; fill:none" points="
  50.7108,361.8 50.7108,3.93701 
  "/>
<polyline clip-path="url(#clip02)" style="stroke:#00002d; stroke-width:0.8; stroke-opacity:1; fill:none" points="
  796.063,361.8 796.063,3.93701 
  "/>
<polyline clip-path="url(#clip02)" style="stroke:#00002d; stroke-width:0.8; stroke-opacity:1; fill:none" points="
  50.7108,259.553 61.8911,259.553 
  "/>
<polyline clip-path="url(#clip02)" style="stroke:#00002d; stroke-width:0.8; stroke-opacity:1; fill:none" points="
  796.063,259.553 784.883,259.553 
  "/>
<polyline clip-path="url(#clip02)" style="stroke:#00002d; stroke-width:0.8; stroke-opacity:1; fill:none" points="
  50.7108,131.745 61.8911,131.745 
  "/>
<polyline clip-path="url(#clip02)" style="stroke:#00002d; stroke-width:0.8; stroke-opacity:1; fill:none" points="
  796.063,131.745 784.883,131.745 
  "/>
<polyline clip-path="url(#clip02)" style="stroke:#00002d; stroke-width:0.8; stroke-opacity:1; fill:none" points="
  50.7108,3.93701 61.8911,3.93701 
  "/>
<polyline clip-path="url(#clip02)" style="stroke:#00002d; stroke-width:0.8; stroke-opacity:1; fill:none" points="
  796.063,3.93701 784.883,3.93701 
  "/>
<g clip-path="url(#clip00)">
<text style="fill:#00002d; fill-opacity:1; font-family:Arial,Helvetica Neue,Helvetica,sans-serif; font-size:12; text-anchor:start;" transform="rotate(0, 121.449, 385.552)" x="121.449" y="385.552">10</text>
</g>
<g clip-path="url(#clip00)">
<text style="fill:#00002d; fill-opacity:1; font-family:Arial,Helvetica Neue,Helvetica,sans-serif; font-size:10; text-anchor:start;" transform="rotate(0, 134.628, 378.699)" x="134.628" y="378.699">-</text>
</g>
<g clip-path="url(#clip00)">
<text style="fill:#00002d; fill-opacity:1; font-family:Arial,Helvetica Neue,Helvetica,sans-serif; font-size:10; text-anchor:start;" transform="rotate(0, 140.252, 378.699)" x="140.252" y="378.699">7</text>
</g>
<g clip-path="url(#clip00)">
<text style="fill:#00002d; fill-opacity:1; font-family:Arial,Helvetica Neue,Helvetica,sans-serif; font-size:12; text-anchor:start;" transform="rotate(0, 287.083, 385.552)" x="287.083" y="385.552">10</text>
</g>
<g clip-path="url(#clip00)">
<text style="fill:#00002d; fill-opacity:1; font-family:Arial,Helvetica Neue,Helvetica,sans-serif; font-size:10; text-anchor:start;" transform="rotate(0, 300.262, 378.699)" x="300.262" y="378.699">-</text>
</g>
<g clip-path="url(#clip00)">
<text style="fill:#00002d; fill-opacity:1; font-family:Arial,Helvetica Neue,Helvetica,sans-serif; font-size:10; text-anchor:start;" transform="rotate(0, 305.886, 378.699)" x="305.886" y="378.699">6</text>
</g>
<g clip-path="url(#clip00)">
<text style="fill:#00002d; fill-opacity:1; font-family:Arial,Helvetica Neue,Helvetica,sans-serif; font-size:12; text-anchor:start;" transform="rotate(0, 452.717, 385.552)" x="452.717" y="385.552">10</text>
</g>
<g clip-path="url(#clip00)">
<text style="fill:#00002d; fill-opacity:1; font-family:Arial,Helvetica Neue,Helvetica,sans-serif; font-size:10; text-anchor:start;" transform="rotate(0, 465.896, 378.699)" x="465.896" y="378.699">-</text>
</g>
<g clip-path="url(#clip00)">
<text style="fill:#00002d; fill-opacity:1; font-family:Arial,Helvetica Neue,Helvetica,sans-serif; font-size:10; text-anchor:start;" transform="rotate(0, 471.52, 378.699)" x="471.52" y="378.699">5</text>
</g>
<g clip-path="url(#clip00)">
<text style="fill:#00002d; fill-opacity:1; font-family:Arial,Helvetica Neue,Helvetica,sans-serif; font-size:12; text-anchor:start;" transform="rotate(0, 618.351, 385.552)" x="618.351" y="385.552">10</text>
</g>
<g clip-path="url(#clip00)">
<text style="fill:#00002d; fill-opacity:1; font-family:Arial,Helvetica Neue,Helvetica,sans-serif; font-size:10; text-anchor:start;" transform="rotate(0, 631.53, 378.699)" x="631.53" y="378.699">-</text>
</g>
<g clip-path="url(#clip00)">
<text style="fill:#00002d; fill-opacity:1; font-family:Arial,Helvetica Neue,Helvetica,sans-serif; font-size:10; text-anchor:start;" transform="rotate(0, 637.154, 378.699)" x="637.154" y="378.699">4</text>
</g>
<g clip-path="url(#clip00)">
<text style="fill:#00002d; fill-opacity:1; font-family:Arial,Helvetica Neue,Helvetica,sans-serif; font-size:12; text-anchor:start;" transform="rotate(0, 783.984, 385.552)" x="783.984" y="385.552">10</text>
</g>
<g clip-path="url(#clip00)">
<text style="fill:#00002d; fill-opacity:1; font-family:Arial,Helvetica Neue,Helvetica,sans-serif; font-size:10; text-anchor:start;" transform="rotate(0, 797.164, 378.699)" x="797.164" y="378.699">-</text>
</g>
<g clip-path="url(#clip00)">
<text style="fill:#00002d; fill-opacity:1; font-family:Arial,Helvetica Neue,Helvetica,sans-serif; font-size:10; text-anchor:start;" transform="rotate(0, 802.787, 378.699)" x="802.787" y="378.699">3</text>
</g>
<g clip-path="url(#clip00)">
<text style="fill:#00002d; fill-opacity:1; font-family:Arial,Helvetica Neue,Helvetica,sans-serif; font-size:12; text-anchor:start;" transform="rotate(0, 18.5538, 265.485)" x="18.5538" y="265.485">10</text>
</g>
<g clip-path="url(#clip00)">
<text style="fill:#00002d; fill-opacity:1; font-family:Arial,Helvetica Neue,Helvetica,sans-serif; font-size:10; text-anchor:start;" transform="rotate(0, 31.7331, 258.633)" x="31.7331" y="258.633">-</text>
</g>
<g clip-path="url(#clip00)">
<text style="fill:#00002d; fill-opacity:1; font-family:Arial,Helvetica Neue,Helvetica,sans-serif; font-size:10; text-anchor:start;" transform="rotate(0, 37.3568, 258.633)" x="37.3568" y="258.633">6</text>
</g>
<g clip-path="url(#clip00)">
<text style="fill:#00002d; fill-opacity:1; font-family:Arial,Helvetica Neue,Helvetica,sans-serif; font-size:12; text-anchor:start;" transform="rotate(0, 18.5538, 137.677)" x="18.5538" y="137.677">10</text>
</g>
<g clip-path="url(#clip00)">
<text style="fill:#00002d; fill-opacity:1; font-family:Arial,Helvetica Neue,Helvetica,sans-serif; font-size:10; text-anchor:start;" transform="rotate(0, 31.7331, 130.825)" x="31.7331" y="130.825">-</text>
</g>
<g clip-path="url(#clip00)">
<text style="fill:#00002d; fill-opacity:1; font-family:Arial,Helvetica Neue,Helvetica,sans-serif; font-size:10; text-anchor:start;" transform="rotate(0, 37.3568, 130.825)" x="37.3568" y="130.825">5</text>
</g>
<g clip-path="url(#clip00)">
<text style="fill:#00002d; fill-opacity:1; font-family:Arial,Helvetica Neue,Helvetica,sans-serif; font-size:12; text-anchor:start;" transform="rotate(0, 18.5538, 9.86891)" x="18.5538" y="9.86891">10</text>
</g>
<g clip-path="url(#clip00)">
<text style="fill:#00002d; fill-opacity:1; font-family:Arial,Helvetica Neue,Helvetica,sans-serif; font-size:10; text-anchor:start;" transform="rotate(0, 31.7331, 3.01631)" x="31.7331" y="3.01631">-</text>
</g>
<g clip-path="url(#clip00)">
<text style="fill:#00002d; fill-opacity:1; font-family:Arial,Helvetica Neue,Helvetica,sans-serif; font-size:10; text-anchor:start;" transform="rotate(0, 37.3568, 3.01631)" x="37.3568" y="3.01631">4</text>
</g>
<g clip-path="url(#clip00)">
<text style="fill:#00002d; fill-opacity:1; font-family:Arial,Helvetica Neue,Helvetica,sans-serif; font-size:16; text-anchor:middle;" transform="rotate(0, 423.387, 397.6)" x="423.387" y="397.6">Id(A)</text>
</g>
<g clip-path="url(#clip00)">
<text style="fill:#00002d; fill-opacity:1; font-family:Arial,Helvetica Neue,Helvetica,sans-serif; font-size:16; text-anchor:middle;" transform="rotate(-90, 14.4, 182.869)" x="14.4" y="182.869">Derivative(Id)</text>
</g>
<polyline clip-path="url(#clip02)" style="stroke:#00beff; stroke-width:0.8; stroke-opacity:1; fill:none" points="
  116.095,333.824 139.918,333.824 166.058,310.776 192.984,290.154 219.429,270.123 245.838,247.535 273.769,222.917 303.156,196.873 334.338,170.245 366.693,146.411 
  397.688,126.389 426.348,110.112 451.957,98.3084 473.847,92.0302 491.518,89.085 506.318,87.9153 518.538,88.8539 528.688,91.8374 536.949,97.9094 543.407,107.659 
  548.231,107.659 
  "/>
<polygon clip-path="url(#clip02)" style="fill:#00beff; fill-opacity:1" points="
  116.095,337.824 112.631,335.824 112.631,331.824 116.095,329.824 119.559,331.824 119.559,335.824 
  "/>
<polygon clip-path="url(#clip02)" style="fill:#00beff; fill-opacity:1" points="
  139.918,337.824 136.454,335.824 136.454,331.824 139.918,329.824 143.382,331.824 143.382,335.824 
  "/>
<polygon clip-path="url(#clip02)" style="fill:#00beff; fill-opacity:1" points="
  166.058,314.776 162.594,312.776 162.594,308.776 166.058,306.776 169.522,308.776 169.522,312.776 
  "/>
<polygon clip-path="url(#clip02)" style="fill:#00beff; fill-opacity:1" points="
  192.984,294.154 189.52,292.154 189.52,288.154 192.984,286.154 196.448,288.154 196.448,292.154 
  "/>
<polygon clip-path="url(#clip02)" style="fill:#00beff; fill-opacity:1" points="
  219.429,274.123 215.965,272.123 215.965,268.123 219.429,266.123 222.893,268.123 222.893,272.123 
  "/>
<polygon clip-path="url(#clip02)" style="fill:#00beff; fill-opacity:1" points="
  245.838,251.535 242.374,249.535 242.374,245.535 245.838,243.535 249.302,245.535 249.302,249.535 
  "/>
<polygon clip-path="url(#clip02)" style="fill:#00beff; fill-opacity:1" points="
  273.769,226.917 270.305,224.917 270.305,220.917 273.769,218.917 277.233,220.917 277.233,224.917 
  "/>
<polygon clip-path="url(#clip02)" style="fill:#00beff; fill-opacity:1" points="
  303.156,200.873 299.692,198.873 299.692,194.873 303.156,192.873 306.62,194.873 306.62,198.873 
  "/>
<polygon clip-path="url(#clip02)" style="fill:#00beff; fill-opacity:1" points="
  334.338,174.245 330.874,172.245 330.874,168.245 334.338,166.245 337.802,168.245 337.802,172.245 
  "/>
<polygon clip-path="url(#clip02)" style="fill:#00beff; fill-opacity:1" points="
  366.693,150.411 363.229,148.411 363.229,144.411 366.693,142.411 370.157,144.411 370.157,148.411 
  "/>
<polygon clip-path="url(#clip02)" style="fill:#00beff; fill-opacity:1" points="
  397.688,130.389 394.224,128.389 394.224,124.389 397.688,122.389 401.152,124.389 401.152,128.389 
  "/>
<polygon clip-path="url(#clip02)" style="fill:#00beff; fill-opacity:1" points="
  426.348,114.112 422.884,112.112 422.884,108.112 426.348,106.112 429.812,108.112 429.812,112.112 
  "/>
<polygon clip-path="url(#clip02)" style="fill:#00beff; fill-opacity:1" points="
  451.957,102.308 448.493,100.308 448.493,96.3084 451.957,94.3084 455.421,96.3084 455.421,100.308 
  "/>
<polygon clip-path="url(#clip02)" style="fill:#00beff; fill-opacity:1" points="
  473.847,96.0302 470.383,94.0302 470.383,90.0302 473.847,88.0302 477.311,90.0302 477.311,94.0302 
  "/>
<polygon clip-path="url(#clip02)" style="fill:#00beff; fill-opacity:1" points="
  491.518,93.085 488.054,91.085 488.054,87.085 491.518,85.085 494.982,87.085 494.982,91.085 
  "/>
<polygon clip-path="url(#clip02)" style="fill:#00beff; fill-opacity:1" points="
  506.318,91.9153 502.854,89.9153 502.854,85.9153 506.318,83.9153 509.782,85.9153 509.782,89.9153 
  "/>
<polygon clip-path="url(#clip02)" style="fill:#00beff; fill-opacity:1" points="
  518.538,92.8539 515.074,90.8539 515.074,86.8539 518.538,84.8539 522.002,86.8539 522.002,90.8539 
  "/>
<polygon clip-path="url(#clip02)" style="fill:#00beff; fill-opacity:1" points="
  528.688,95.8374 525.224,93.8374 525.224,89.8374 528.688,87.8374 532.152,89.8374 532.152,93.8374 
  "/>
<polygon clip-path="url(#clip02)" style="fill:#00beff; fill-opacity:1" points="
  536.949,101.909 533.485,99.9094 533.485,95.9094 536.949,93.9094 540.413,95.9094 540.413,99.9094 
  "/>
<polygon clip-path="url(#clip02)" style="fill:#00beff; fill-opacity:1" points="
  543.407,111.659 539.943,109.659 539.943,105.659 543.407,103.659 546.871,105.659 546.871,109.659 
  "/>
<polygon clip-path="url(#clip02)" style="fill:#00beff; fill-opacity:1" points="
  548.231,111.659 544.767,109.659 544.767,105.659 548.231,103.659 551.695,105.659 551.695,109.659 
  "/>
<polyline clip-path="url(#clip02)" style="stroke:#008100; stroke-width:0.8; stroke-opacity:1; fill:none" points="
  124.473,326.149 149.383,326.149 175.228,303.804 202.225,282.643 228.896,262.614 255.333,241.431 282.414,218.254 310.774,194.208 340.072,169.128 370.756,144.228 
  401.735,122.006 431.327,102.887 458.869,87.2865 483.474,77.6331 503.635,71.5666 520.974,67.2651 535.569,66.1461 547.599,67.7875 557.424,71.2608 565.476,76.8056 
  571.888,76.8056 
  "/>
<polygon clip-path="url(#clip02)" style="fill:#008100; fill-opacity:1" points="
  124.473,322.149 120.473,326.149 124.473,330.149 128.473,326.149 124.473,322.149 
  "/>
<polygon clip-path="url(#clip02)" style="fill:#008100; fill-opacity:1" points="
  149.383,322.149 145.383,326.149 149.383,330.149 153.383,326.149 149.383,322.149 
  "/>
<polygon clip-path="url(#clip02)" style="fill:#008100; fill-opacity:1" points="
  175.228,299.804 171.228,303.804 175.228,307.804 179.228,303.804 175.228,299.804 
  "/>
<polygon clip-path="url(#clip02)" style="fill:#008100; fill-opacity:1" points="
  202.225,278.643 198.225,282.643 202.225,286.643 206.225,282.643 202.225,278.643 
  "/>
<polygon clip-path="url(#clip02)" style="fill:#008100; fill-opacity:1" points="
  228.896,258.614 224.896,262.614 228.896,266.614 232.896,262.614 228.896,258.614 
  "/>
<polygon clip-path="url(#clip02)" style="fill:#008100; fill-opacity:1" points="
  255.333,237.431 251.333,241.431 255.333,245.431 259.333,241.431 255.333,237.431 
  "/>
<polygon clip-path="url(#clip02)" style="fill:#008100; fill-opacity:1" points="
  282.414,214.254 278.414,218.254 282.414,222.254 286.414,218.254 282.414,214.254 
  "/>
<polygon clip-path="url(#clip02)" style="fill:#008100; fill-opacity:1" points="
  310.774,190.208 306.774,194.208 310.774,198.208 314.774,194.208 310.774,190.208 
  "/>
<polygon clip-path="url(#clip02)" style="fill:#008100; fill-opacity:1" points="
  340.072,165.128 336.072,169.128 340.072,173.128 344.072,169.128 340.072,165.128 
  "/>
<polygon clip-path="url(#clip02)" style="fill:#008100; fill-opacity:1" points="
  370.756,140.228 366.756,144.228 370.756,148.228 374.756,144.228 370.756,140.228 
  "/>
<polygon clip-path="url(#clip02)" style="fill:#008100; fill-opacity:1" points="
  401.735,118.006 397.735,122.006 401.735,126.006 405.735,122.006 401.735,118.006 
  "/>
<polygon clip-path="url(#clip02)" style="fill:#008100; fill-opacity:1" points="
  431.327,98.887 427.327,102.887 431.327,106.887 435.327,102.887 431.327,98.887 
  "/>
<polygon clip-path="url(#clip02)" style="fill:#008100; fill-opacity:1" points="
  458.869,83.2865 454.869,87.2865 458.869,91.2865 462.869,87.2865 458.869,83.2865 
  "/>
<polygon clip-path="url(#clip02)" style="fill:#008100; fill-opacity:1" points="
  483.474,73.6331 479.474,77.6331 483.474,81.6331 487.474,77.6331 483.474,73.6331 
  "/>
<polygon clip-path="url(#clip02)" style="fill:#008100; fill-opacity:1" points="
  503.635,67.5666 499.635,71.5666 503.635,75.5666 507.635,71.5666 503.635,67.5666 
  "/>
<polygon clip-path="url(#clip02)" style="fill:#008100; fill-opacity:1" points="
  520.974,63.2651 516.974,67.2651 520.974,71.2651 524.974,67.2651 520.974,63.2651 
  "/>
<polygon clip-path="url(#clip02)" style="fill:#008100; fill-opacity:1" points="
  535.569,62.1461 531.569,66.1461 535.569,70.1461 539.569,66.1461 535.569,62.1461 
  "/>
<polygon clip-path="url(#clip02)" style="fill:#008100; fill-opacity:1" points="
  547.599,63.7875 543.599,67.7875 547.599,71.7875 551.599,67.7875 547.599,63.7875 
  "/>
<polygon clip-path="url(#clip02)" style="fill:#008100; fill-opacity:1" points="
  557.424,67.2608 553.424,71.2608 557.424,75.2608 561.424,71.2608 557.424,67.2608 
  "/>
<polygon clip-path="url(#clip02)" style="fill:#008100; fill-opacity:1" points="
  565.476,72.8056 561.476,76.8056 565.476,80.8056 569.476,76.8056 565.476,72.8056 
  "/>
<polygon clip-path="url(#clip02)" style="fill:#008100; fill-opacity:1" points="
  571.888,72.8056 567.888,76.8056 571.888,80.8056 575.888,76.8056 571.888,72.8056 
  "/>
<polyline clip-path="url(#clip02)" style="stroke:#b12121; stroke-width:0.8; stroke-opacity:1; fill:none" points="
  132.31,321.57 156.749,321.57 182.108,297.701 209.873,275.57 236.983,255.394 263.877,234.303 291.107,211.671 319.312,188.434 348.103,164.196 378.088,139.859 
  408.412,117.415 437.889,96.7202 466.269,80.2048 491.384,67.6172 513.675,57.1111 533.479,49.2902 550.646,43.9951 565.517,40.5953 578.361,39.777 589.091,42.0532 
  597.854,42.0532 
  "/>
<polygon clip-path="url(#clip02)" style="fill:#b12121; fill-opacity:1" points="
  132.31,325.57 128.846,323.57 128.846,319.57 132.31,317.57 135.774,319.57 135.774,323.57 
  "/>
<polygon clip-path="url(#clip02)" style="fill:#b12121; fill-opacity:1" points="
  156.749,325.57 153.285,323.57 153.285,319.57 156.749,317.57 160.213,319.57 160.213,323.57 
  "/>
<polygon clip-path="url(#clip02)" style="fill:#b12121; fill-opacity:1" points="
  182.108,301.701 178.644,299.701 178.644,295.701 182.108,293.701 185.572,295.701 185.572,299.701 
  "/>
<polygon clip-path="url(#clip02)" style="fill:#b12121; fill-opacity:1" points="
  209.873,279.57 206.409,277.57 206.409,273.57 209.873,271.57 213.337,273.57 213.337,277.57 
  "/>
<polygon clip-path="url(#clip02)" style="fill:#b12121; fill-opacity:1" points="
  236.983,259.394 233.519,257.394 233.519,253.394 236.983,251.394 240.447,253.394 240.447,257.394 
  "/>
<polygon clip-path="url(#clip02)" style="fill:#b12121; fill-opacity:1" points="
  263.877,238.303 260.413,236.303 260.413,232.303 263.877,230.303 267.341,232.303 267.341,236.303 
  "/>
<polygon clip-path="url(#clip02)" style="fill:#b12121; fill-opacity:1" points="
  291.107,215.671 287.643,213.671 287.643,209.671 291.107,207.671 294.571,209.671 294.571,213.671 
  "/>
<polygon clip-path="url(#clip02)" style="fill:#b12121; fill-opacity:1" points="
  319.312,192.434 315.848,190.434 315.848,186.434 319.312,184.434 322.776,186.434 322.776,190.434 
  "/>
<polygon clip-path="url(#clip02)" style="fill:#b12121; fill-opacity:1" points="
  348.103,168.196 344.639,166.196 344.639,162.196 348.103,160.196 351.567,162.196 351.567,166.196 
  "/>
<polygon clip-path="url(#clip02)" style="fill:#b12121; fill-opacity:1" points="
  378.088,143.859 374.624,141.859 374.624,137.859 378.088,135.859 381.552,137.859 381.552,141.859 
  "/>
<polygon clip-path="url(#clip02)" style="fill:#b12121; fill-opacity:1" points="
  408.412,121.415 404.948,119.415 404.948,115.415 408.412,113.415 411.876,115.415 411.876,119.415 
  "/>
<polygon clip-path="url(#clip02)" style="fill:#b12121; fill-opacity:1" points="
  437.889,100.72 434.425,98.7202 434.425,94.7202 437.889,92.7202 441.353,94.7202 441.353,98.7202 
  "/>
<polygon clip-path="url(#clip02)" style="fill:#b12121; fill-opacity:1" points="
  466.269,84.2048 462.805,82.2048 462.805,78.2048 466.269,76.2048 469.733,78.2048 469.733,82.2048 
  "/>
<polygon clip-path="url(#clip02)" style="fill:#b12121; fill-opacity:1" points="
  491.384,71.6172 487.92,69.6172 487.92,65.6172 491.384,63.6172 494.848,65.6172 494.848,69.6172 
  "/>
<polygon clip-path="url(#clip02)" style="fill:#b12121; fill-opacity:1" points="
  513.675,61.1111 510.211,59.1111 510.211,55.1111 513.675,53.1111 517.139,55.1111 517.139,59.1111 
  "/>
<polygon clip-path="url(#clip02)" style="fill:#b12121; fill-opacity:1" points="
  533.479,53.2902 530.015,51.2902 530.015,47.2902 533.479,45.2902 536.943,47.2902 536.943,51.2902 
  "/>
<polygon clip-path="url(#clip02)" style="fill:#b12121; fill-opacity:1" points="
  550.646,47.9951 547.182,45.9951 547.182,41.9951 550.646,39.9951 554.11,41.9951 554.11,45.9951 
  "/>
<polygon clip-path="url(#clip02)" style="fill:#b12121; fill-opacity:1" points="
  565.517,44.5953 562.053,42.5953 562.053,38.5953 565.517,36.5953 568.981,38.5953 568.981,42.5953 
  "/>
<polygon clip-path="url(#clip02)" style="fill:#b12121; fill-opacity:1" points="
  578.361,43.777 574.897,41.777 574.897,37.777 578.361,35.777 581.825,37.777 581.825,41.777 
  "/>
<polygon clip-path="url(#clip02)" style="fill:#b12121; fill-opacity:1" points="
  589.091,46.0532 585.627,44.0532 585.627,40.0532 589.091,38.0532 592.555,40.0532 592.555,44.0532 
  "/>
<polygon clip-path="url(#clip02)" style="fill:#b12121; fill-opacity:1" points="
  597.854,46.0532 594.39,44.0532 594.39,40.0532 597.854,38.0532 601.318,40.0532 601.318,44.0532 
  "/>
<polyline clip-path="url(#clip02)" style="stroke:#818100; stroke-width:0.8; stroke-opacity:1; fill:none" points="
  139.283,321.701 161.182,321.701 185.602,297.731 212.006,275.635 238.59,254.541 265.471,232.75 292.93,210.546 320.834,187.595 349.524,163.209 379.475,139.028 
  409.638,116.333 439.271,95.441 467.734,78.6833 493.089,65.8446 515.543,54.5847 535.883,45.6559 553.67,38.7456 569.533,34.0454 583.169,31.7724 594.941,31.4647 
  604.886,31.4647 
  "/>
<polygon clip-path="url(#clip02)" style="fill:#818100; fill-opacity:1" points="
  139.283,317.701 135.283,321.701 139.283,325.701 143.283,321.701 139.283,317.701 
  "/>
<polygon clip-path="url(#clip02)" style="fill:#818100; fill-opacity:1" points="
  161.182,317.701 157.182,321.701 161.182,325.701 165.182,321.701 161.182,317.701 
  "/>
<polygon clip-path="url(#clip02)" style="fill:#818100; fill-opacity:1" points="
  185.602,293.731 181.602,297.731 185.602,301.731 189.602,297.731 185.602,293.731 
  "/>
<polygon clip-path="url(#clip02)" style="fill:#818100; fill-opacity:1" points="
  212.006,271.635 208.006,275.635 212.006,279.635 216.006,275.635 212.006,271.635 
  "/>
<polygon clip-path="url(#clip02)" style="fill:#818100; fill-opacity:1" points="
  238.59,250.541 234.59,254.541 238.59,258.541 242.59,254.541 238.59,250.541 
  "/>
<polygon clip-path="url(#clip02)" style="fill:#818100; fill-opacity:1" points="
  265.471,228.75 261.471,232.75 265.471,236.75 269.471,232.75 265.471,228.75 
  "/>
<polygon clip-path="url(#clip02)" style="fill:#818100; fill-opacity:1" points="
  292.93,206.546 288.93,210.546 292.93,214.546 296.93,210.546 292.93,206.546 
  "/>
<polygon clip-path="url(#clip02)" style="fill:#818100; fill-opacity:1" points="
  320.834,183.595 316.834,187.595 320.834,191.595 324.834,187.595 320.834,183.595 
  "/>
<polygon clip-path="url(#clip02)" style="fill:#818100; fill-opacity:1" points="
  349.524,159.209 345.524,163.209 349.524,167.209 353.524,163.209 349.524,159.209 
  "/>
<polygon clip-path="url(#clip02)" style="fill:#818100; fill-opacity:1" points="
  379.475,135.028 375.475,139.028 379.475,143.028 383.475,139.028 379.475,135.028 
  "/>
<polygon clip-path="url(#clip02)" style="fill:#818100; fill-opacity:1" points="
  409.638,112.333 405.638,116.333 409.638,120.333 413.638,116.333 409.638,112.333 
  "/>
<polygon clip-path="url(#clip02)" style="fill:#818100; fill-opacity:1" points="
  439.271,91.441 435.271,95.441 439.271,99.441 443.271,95.441 439.271,91.441 
  "/>
<polygon clip-path="url(#clip02)" style="fill:#818100; fill-opacity:1" points="
  467.734,74.6833 463.734,78.6833 467.734,82.6833 471.734,78.6833 467.734,74.6833 
  "/>
<polygon clip-path="url(#clip02)" style="fill:#818100; fill-opacity:1" points="
  493.089,61.8446 489.089,65.8446 493.089,69.8446 497.089,65.8446 493.089,61.8446 
  "/>
<polygon clip-path="url(#clip02)" style="fill:#818100; fill-opacity:1" points="
  515.543,50.5847 511.543,54.5847 515.543,58.5847 519.543,54.5847 515.543,50.5847 
  "/>
<polygon clip-path="url(#clip02)" style="fill:#818100; fill-opacity:1" points="
  535.883,41.6559 531.883,45.6559 535.883,49.6559 539.883,45.6559 535.883,41.6559 
  "/>
<polygon clip-path="url(#clip02)" style="fill:#818100; fill-opacity:1" points="
  553.67,34.7456 549.67,38.7456 553.67,42.7456 557.67,38.7456 553.67,34.7456 
  "/>
<polygon clip-path="url(#clip02)" style="fill:#818100; fill-opacity:1" points="
  569.533,30.0454 565.533,34.0454 569.533,38.0454 573.533,34.0454 569.533,30.0454 
  "/>
<polygon clip-path="url(#clip02)" style="fill:#818100; fill-opacity:1" points="
  583.169,27.7724 579.169,31.7724 583.169,35.7724 587.169,31.7724 583.169,27.7724 
  "/>
<polygon clip-path="url(#clip02)" style="fill:#818100; fill-opacity:1" points="
  594.941,27.4647 590.941,31.4647 594.941,35.4647 598.941,31.4647 594.941,27.4647 
  "/>
<polygon clip-path="url(#clip02)" style="fill:#818100; fill-opacity:1" points="
  604.886,27.4647 600.886,31.4647 604.886,35.4647 608.886,31.4647 604.886,27.4647 
  "/>
<polygon clip-path="url(#clip00)" points="
635.731,112.417 772.063,112.417 772.063,36.817 635.731,36.817 
  " fill="#ffffff" fill-opacity="1"/>
<polyline clip-path="url(#clip00)" style="stroke:#00002d; stroke-width:0.8; stroke-opacity:1; fill:none" points="
  635.731,112.417 772.063,112.417 772.063,36.817 635.731,36.817 635.731,112.417 
  "/>
<polyline clip-path="url(#clip00)" style="stroke:#00beff; stroke-width:0.8; stroke-opacity:1; fill:none" points="
  643.731,51.937 691.731,51.937 
  "/>
<polygon clip-path="url(#clip00)" style="fill:#00beff; fill-opacity:1" points="
  651.731,59.937 644.803,55.937 644.803,47.937 651.731,43.937 658.659,47.937 658.659,55.937 
  "/>
<polygon clip-path="url(#clip00)" style="fill:#00beff; fill-opacity:1" points="
  683.731,59.937 676.803,55.937 676.803,47.937 683.731,43.937 690.659,47.937 690.659,55.937 
  "/>
<g clip-path="url(#clip00)">
<text style="fill:#00002d; fill-opacity:1; font-family:Arial,Helvetica Neue,Helvetica,sans-serif; font-size:12; text-anchor:start;" transform="rotate(0, 699.731, 56.437)" x="699.731" y="56.437">Vds=0.5v</text>
</g>
<polyline clip-path="url(#clip00)" style="stroke:#008100; stroke-width:0.8; stroke-opacity:1; fill:none" points="
  643.731,67.057 691.731,67.057 
  "/>
<polygon clip-path="url(#clip00)" style="fill:#008100; fill-opacity:1" points="
  651.731,59.057 643.731,67.057 651.731,75.057 659.731,67.057 651.731,59.057 
  "/>
<polygon clip-path="url(#clip00)" style="fill:#008100; fill-opacity:1" points="
  683.731,59.057 675.731,67.057 683.731,75.057 691.731,67.057 683.731,59.057 
  "/>
<g clip-path="url(#clip00)">
<text style="fill:#00002d; fill-opacity:1; font-family:Arial,Helvetica Neue,Helvetica,sans-serif; font-size:12; text-anchor:start;" transform="rotate(0, 699.731, 71.557)" x="699.731" y="71.557">Vds=0.75v</text>
</g>
<polyline clip-path="url(#clip00)" style="stroke:#b12121; stroke-width:0.8; stroke-opacity:1; fill:none" points="
  643.731,82.177 691.731,82.177 
  "/>
<polygon clip-path="url(#clip00)" style="fill:#b12121; fill-opacity:1" points="
  651.731,90.177 644.803,86.177 644.803,78.177 651.731,74.177 658.659,78.177 658.659,86.177 
  "/>
<polygon clip-path="url(#clip00)" style="fill:#b12121; fill-opacity:1" points="
  683.731,90.177 676.803,86.177 676.803,78.177 683.731,74.177 690.659,78.177 690.659,86.177 
  "/>
<g clip-path="url(#clip00)">
<text style="fill:#00002d; fill-opacity:1; font-family:Arial,Helvetica Neue,Helvetica,sans-serif; font-size:12; text-anchor:start;" transform="rotate(0, 699.731, 86.677)" x="699.731" y="86.677">Vds=1.25v</text>
</g>
<polyline clip-path="url(#clip00)" style="stroke:#818100; stroke-width:0.8; stroke-opacity:1; fill:none" points="
  643.731,97.297 691.731,97.297 
  "/>
<polygon clip-path="url(#clip00)" style="fill:#818100; fill-opacity:1" points="
  651.731,89.297 643.731,97.297 651.731,105.297 659.731,97.297 651.731,89.297 
  "/>
<polygon clip-path="url(#clip00)" style="fill:#818100; fill-opacity:1" points="
  683.731,89.297 675.731,97.297 683.731,105.297 691.731,97.297 683.731,89.297 
  "/>
<g clip-path="url(#clip00)">
<text style="fill:#00002d; fill-opacity:1; font-family:Arial,Helvetica Neue,Helvetica,sans-serif; font-size:12; text-anchor:start;" transform="rotate(0, 699.731, 101.797)" x="699.731" y="101.797">Vds=1.5v</text>
</g>
</svg>
