<?xml version="1.0" encoding="utf-8" standalone="no"?>
<!DOCTYPE svg PUBLIC "-//W3C//DTD SVG 1.1//EN"
  "http://www.w3.org/Graphics/SVG/1.1/DTD/svg11.dtd">
<!-- Created with matplotlib (http://matplotlib.org/) -->
<svg height="257pt" version="1.1" viewBox="0 0 432 257" width="432pt" xmlns="http://www.w3.org/2000/svg" xmlns:xlink="http://www.w3.org/1999/xlink">
 <defs>
  <style type="text/css">
*{stroke-linecap:butt;stroke-linejoin:round;}
  </style>
 </defs>
 <g id="figure_1">
  <g id="patch_1">
   <path d="
M0 257.76
L432 257.76
L432 0
L0 0
z
" style="fill:#ffffff;"/>
  </g>
  <g id="axes_1">
   <g id="patch_2">
    <path d="
M39.1028 231.058
L429.165 231.058
L429.165 2.53701
L39.1028 2.53701
z
" style="fill:#ffffff;"/>
   </g>
   <g id="matplotlib.axis_1">
    <g id="xtick_1">
     <g id="line2d_1">
      <path clip-path="url(#p134097fe45)" d="
M71.608 231.058
L71.608 2.53701" style="fill:none;stroke:#000000;stroke-dasharray:1.000000,3.000000;stroke-dashoffset:0.0;stroke-width:0.5;"/>
     </g>
     <g id="line2d_2">
      <defs>
       <path d="
M0 0
L0 -4" id="m93b0483c22" style="stroke:#000000;stroke-width:0.5;"/>
      </defs>
      <g>
       <use style="stroke:#000000;stroke-width:0.5;" x="71.6079926883" xlink:href="#m93b0483c22" y="231.057992126"/>
      </g>
     </g>
     <g id="line2d_3">
      <defs>
       <path d="
M0 0
L0 4" id="m741efc42ff" style="stroke:#000000;stroke-width:0.5;"/>
      </defs>
      <g>
       <use style="stroke:#000000;stroke-width:0.5;" x="71.6079926883" xlink:href="#m741efc42ff" y="2.53700787402"/>
      </g>
     </g>
     <g id="text_1">
      <!-- 0 -->
      <defs>
       <path d="
M31.7812 66.4062
Q24.1719 66.4062 20.3281 58.9062
Q16.5 51.4219 16.5 36.375
Q16.5 21.3906 20.3281 13.8906
Q24.1719 6.39062 31.7812 6.39062
Q39.4531 6.39062 43.2812 13.8906
Q47.125 21.3906 47.125 36.375
Q47.125 51.4219 43.2812 58.9062
Q39.4531 66.4062 31.7812 66.4062
M31.7812 74.2188
Q44.0469 74.2188 50.5156 64.5156
Q56.9844 54.8281 56.9844 36.375
Q56.9844 17.9688 50.5156 8.26562
Q44.0469 -1.42188 31.7812 -1.42188
Q19.5312 -1.42188 13.0625 8.26562
Q6.59375 17.9688 6.59375 36.375
Q6.59375 54.8281 13.0625 64.5156
Q19.5312 74.2188 31.7812 74.2188" id="BitstreamVeraSans-Roman-30"/>
      </defs>
      <g transform="translate(69.5923676883 241.136742126)scale(0.08 -0.08)">
       <use xlink:href="#BitstreamVeraSans-Roman-30"/>
      </g>
     </g>
    </g>
    <g id="xtick_2">
     <g id="line2d_4">
      <path clip-path="url(#p134097fe45)" d="
M179.959 231.058
L179.959 2.53701" style="fill:none;stroke:#000000;stroke-dasharray:1.000000,3.000000;stroke-dashoffset:0.0;stroke-width:0.5;"/>
     </g>
     <g id="line2d_5">
      <g>
       <use style="stroke:#000000;stroke-width:0.5;" x="179.958708337" xlink:href="#m93b0483c22" y="231.057992126"/>
      </g>
     </g>
     <g id="line2d_6">
      <g>
       <use style="stroke:#000000;stroke-width:0.5;" x="179.958708337" xlink:href="#m741efc42ff" y="2.53700787402"/>
      </g>
     </g>
     <g id="text_2">
      <!-- 1 -->
      <defs>
       <path d="
M12.4062 8.29688
L28.5156 8.29688
L28.5156 63.9219
L10.9844 60.4062
L10.9844 69.3906
L28.4219 72.9062
L38.2812 72.9062
L38.2812 8.29688
L54.3906 8.29688
L54.3906 0
L12.4062 0
z
" id="BitstreamVeraSans-Roman-31"/>
      </defs>
      <g transform="translate(178.222458337 241.136742126)scale(0.08 -0.08)">
       <use xlink:href="#BitstreamVeraSans-Roman-31"/>
      </g>
     </g>
    </g>
    <g id="xtick_3">
     <g id="line2d_7">
      <path clip-path="url(#p134097fe45)" d="
M288.309 231.058
L288.309 2.53701" style="fill:none;stroke:#000000;stroke-dasharray:1.000000,3.000000;stroke-dashoffset:0.0;stroke-width:0.5;"/>
     </g>
     <g id="line2d_8">
      <g>
       <use style="stroke:#000000;stroke-width:0.5;" x="288.309423987" xlink:href="#m93b0483c22" y="231.057992126"/>
      </g>
     </g>
     <g id="line2d_9">
      <g>
       <use style="stroke:#000000;stroke-width:0.5;" x="288.309423987" xlink:href="#m741efc42ff" y="2.53700787402"/>
      </g>
     </g>
     <g id="text_3">
      <!-- 2 -->
      <defs>
       <path d="
M19.1875 8.29688
L53.6094 8.29688
L53.6094 0
L7.32812 0
L7.32812 8.29688
Q12.9375 14.1094 22.625 23.8906
Q32.3281 33.6875 34.8125 36.5312
Q39.5469 41.8438 41.4219 45.5312
Q43.3125 49.2188 43.3125 52.7812
Q43.3125 58.5938 39.2344 62.25
Q35.1562 65.9219 28.6094 65.9219
Q23.9688 65.9219 18.8125 64.3125
Q13.6719 62.7031 7.8125 59.4219
L7.8125 69.3906
Q13.7656 71.7812 18.9375 73
Q24.125 74.2188 28.4219 74.2188
Q39.75 74.2188 46.4844 68.5469
Q53.2188 62.8906 53.2188 53.4219
Q53.2188 48.9219 51.5312 44.8906
Q49.8594 40.875 45.4062 35.4062
Q44.1875 33.9844 37.6406 27.2188
Q31.1094 20.4531 19.1875 8.29688" id="BitstreamVeraSans-Roman-32"/>
      </defs>
      <g transform="translate(286.458173987 241.136742126)scale(0.08 -0.08)">
       <use xlink:href="#BitstreamVeraSans-Roman-32"/>
      </g>
     </g>
    </g>
    <g id="xtick_4">
     <g id="line2d_10">
      <path clip-path="url(#p134097fe45)" d="
M396.66 231.058
L396.66 2.53701" style="fill:none;stroke:#000000;stroke-dasharray:1.000000,3.000000;stroke-dashoffset:0.0;stroke-width:0.5;"/>
     </g>
     <g id="line2d_11">
      <g>
       <use style="stroke:#000000;stroke-width:0.5;" x="396.660139636" xlink:href="#m93b0483c22" y="231.057992126"/>
      </g>
     </g>
     <g id="line2d_12">
      <g>
       <use style="stroke:#000000;stroke-width:0.5;" x="396.660139636" xlink:href="#m741efc42ff" y="2.53700787402"/>
      </g>
     </g>
     <g id="text_4">
      <!-- 3 -->
      <defs>
       <path d="
M40.5781 39.3125
Q47.6562 37.7969 51.625 33
Q55.6094 28.2188 55.6094 21.1875
Q55.6094 10.4062 48.1875 4.48438
Q40.7656 -1.42188 27.0938 -1.42188
Q22.5156 -1.42188 17.6562 -0.515625
Q12.7969 0.390625 7.625 2.20312
L7.625 11.7188
Q11.7188 9.32812 16.5938 8.10938
Q21.4844 6.89062 26.8125 6.89062
Q36.0781 6.89062 40.9375 10.5469
Q45.7969 14.2031 45.7969 21.1875
Q45.7969 27.6406 41.2812 31.2656
Q36.7656 34.9062 28.7188 34.9062
L20.2188 34.9062
L20.2188 43.0156
L29.1094 43.0156
Q36.375 43.0156 40.2344 45.9219
Q44.0938 48.8281 44.0938 54.2969
Q44.0938 59.9062 40.1094 62.9062
Q36.1406 65.9219 28.7188 65.9219
Q24.6562 65.9219 20.0156 65.0312
Q15.375 64.1562 9.8125 62.3125
L9.8125 71.0938
Q15.4375 72.6562 20.3438 73.4375
Q25.25 74.2188 29.5938 74.2188
Q40.8281 74.2188 47.3594 69.1094
Q53.9062 64.0156 53.9062 55.3281
Q53.9062 49.2656 50.4375 45.0938
Q46.9688 40.9219 40.5781 39.3125" id="BitstreamVeraSans-Roman-33"/>
      </defs>
      <g transform="translate(394.740764636 241.136742126)scale(0.08 -0.08)">
       <use xlink:href="#BitstreamVeraSans-Roman-33"/>
      </g>
     </g>
    </g>
    <g id="text_5">
     <!-- Vg(V) -->
     <defs>
      <path d="
M8.01562 75.875
L15.8281 75.875
Q23.1406 64.3594 26.7812 53.3125
Q30.4219 42.2812 30.4219 31.3906
Q30.4219 20.4531 26.7812 9.375
Q23.1406 -1.70312 15.8281 -13.1875
L8.01562 -13.1875
Q14.5 -2 17.7031 9.0625
Q20.9062 20.125 20.9062 31.3906
Q20.9062 42.6719 17.7031 53.6562
Q14.5 64.6562 8.01562 75.875" id="BitstreamVeraSans-Roman-29"/>
      <path d="
M31 75.875
Q24.4688 64.6562 21.2812 53.6562
Q18.1094 42.6719 18.1094 31.3906
Q18.1094 20.125 21.3125 9.0625
Q24.5156 -2 31 -13.1875
L23.1875 -13.1875
Q15.875 -1.70312 12.2344 9.375
Q8.59375 20.4531 8.59375 31.3906
Q8.59375 42.2812 12.2031 53.3125
Q15.8281 64.3594 23.1875 75.875
z
" id="BitstreamVeraSans-Roman-28"/>
      <path d="
M45.4062 27.9844
Q45.4062 37.75 41.375 43.1094
Q37.3594 48.4844 30.0781 48.4844
Q22.8594 48.4844 18.8281 43.1094
Q14.7969 37.75 14.7969 27.9844
Q14.7969 18.2656 18.8281 12.8906
Q22.8594 7.51562 30.0781 7.51562
Q37.3594 7.51562 41.375 12.8906
Q45.4062 18.2656 45.4062 27.9844
M54.3906 6.78125
Q54.3906 -7.17188 48.1875 -13.9844
Q42 -20.7969 29.2031 -20.7969
Q24.4688 -20.7969 20.2656 -20.0938
Q16.0625 -19.3906 12.1094 -17.9219
L12.1094 -9.1875
Q16.0625 -11.3281 19.9219 -12.3438
Q23.7812 -13.375 27.7812 -13.375
Q36.625 -13.375 41.0156 -8.76562
Q45.4062 -4.15625 45.4062 5.17188
L45.4062 9.625
Q42.625 4.78125 38.2812 2.39062
Q33.9375 0 27.875 0
Q17.8281 0 11.6719 7.65625
Q5.51562 15.3281 5.51562 27.9844
Q5.51562 40.6719 11.6719 48.3281
Q17.8281 56 27.875 56
Q33.9375 56 38.2812 53.6094
Q42.625 51.2188 45.4062 46.3906
L45.4062 54.6875
L54.3906 54.6875
z
" id="BitstreamVeraSans-Roman-67"/>
      <path d="
M28.6094 0
L0.78125 72.9062
L11.0781 72.9062
L34.1875 11.5312
L57.3281 72.9062
L67.5781 72.9062
L39.7969 0
z
" id="BitstreamVeraSans-Roman-56"/>
     </defs>
     <g transform="translate(219.341644287 256.158773376)scale(0.11 -0.11)">
      <use xlink:href="#BitstreamVeraSans-Roman-56"/>
      <use x="68.408203125" xlink:href="#BitstreamVeraSans-Roman-67"/>
      <use x="131.884765625" xlink:href="#BitstreamVeraSans-Roman-28"/>
      <use x="170.8984375" xlink:href="#BitstreamVeraSans-Roman-56"/>
      <use x="239.306640625" xlink:href="#BitstreamVeraSans-Roman-29"/>
     </g>
    </g>
   </g>
   <g id="matplotlib.axis_2">
    <g id="ytick_1">
     <g id="line2d_13">
      <path clip-path="url(#p134097fe45)" d="
M39.1028 198.412
L429.165 198.412" style="fill:none;stroke:#000000;stroke-dasharray:1.000000,3.000000;stroke-dashoffset:0.0;stroke-width:0.5;"/>
     </g>
     <g id="line2d_14">
      <defs>
       <path d="
M0 0
L4 0" id="m728421d6d4" style="stroke:#000000;stroke-width:0.5;"/>
      </defs>
      <g>
       <use style="stroke:#000000;stroke-width:0.5;" x="39.1027779935" xlink:href="#m728421d6d4" y="198.412137233"/>
      </g>
     </g>
     <g id="line2d_15">
      <defs>
       <path d="
M0 0
L-4 0" id="mcb0005524f" style="stroke:#000000;stroke-width:0.5;"/>
      </defs>
      <g>
       <use style="stroke:#000000;stroke-width:0.5;" x="429.165354331" xlink:href="#mcb0005524f" y="198.412137233"/>
      </g>
     </g>
     <g id="text_6">
      <!-- $10^{-7}$ -->
      <defs>
       <path d="
M10.2031 23
Q9.375 23 8.82812 23.625
Q8.29688 24.2656 8.29688 25
Q8.29688 25.7344 8.82812 26.3594
Q9.375 27 10.2031 27
L67.5781 27
Q68.3594 27 68.875 26.3594
Q69.3906 25.7344 69.3906 25
Q69.3906 24.2656 68.875 23.625
Q68.3594 23 67.5781 23
z
" id="Cmsy10-a1"/>
       <path d="
M9.28125 0
L9.28125 3.51562
Q21.7812 3.51562 21.7812 6.6875
L21.7812 59.1875
Q16.6094 56.6875 8.6875 56.6875
L8.6875 60.2031
Q20.9531 60.2031 27.2031 66.6094
L28.6094 66.6094
Q28.9531 66.6094 29.2656 66.3281
Q29.5938 66.0625 29.5938 65.7188
L29.5938 6.6875
Q29.5938 3.51562 42.0938 3.51562
L42.0938 0
z
" id="Cmr10-31"/>
       <path d="
M25 -2.20312
Q12.75 -2.20312 8.32812 7.875
Q3.90625 17.9688 3.90625 31.8906
Q3.90625 40.5781 5.48438 48.2344
Q7.07812 55.9062 11.7812 61.25
Q16.5 66.6094 25 66.6094
Q31.5938 66.6094 35.7812 63.375
Q39.9844 60.1562 42.1875 55.0469
Q44.3906 49.9531 45.1875 44.1094
Q46 38.2812 46 31.8906
Q46 23.2969 44.4062 15.7969
Q42.8281 8.29688 38.1875 3.04688
Q33.5469 -2.20312 25 -2.20312
M25 0.390625
Q30.5625 0.390625 33.2969 6.09375
Q36.0312 11.8125 36.6719 18.75
Q37.3125 25.6875 37.3125 33.5
Q37.3125 41.0156 36.6719 47.3594
Q36.0312 53.7188 33.3125 58.8594
Q30.6094 64.0156 25 64.0156
Q19.3438 64.0156 16.6094 58.8281
Q13.875 53.6562 13.2344 47.3281
Q12.5938 41.0156 12.5938 33.5
Q12.5938 27.9375 12.8594 23
Q13.1406 18.0625 14.3125 12.8125
Q15.4844 7.5625 18.0938 3.96875
Q20.7031 0.390625 25 0.390625" id="Cmr10-30"/>
       <path d="
M17.3906 2.59375
Q17.3906 8.15625 18.3594 13.4688
Q19.3438 18.7969 21.2188 24
Q23.0938 29.2031 25.75 34.2031
Q28.4219 39.2031 31.5938 43.6094
L40.7188 56.2969
L29.2969 56.2969
Q11.5312 56.2969 10.9844 55.8125
Q9.67188 54.2031 8.5 46.5781
L5.60938 46.5781
L8.89062 67.5781
L11.8125 67.5781
L11.8125 67.2812
Q11.8125 65.4844 17.9219 64.9375
Q24.0312 64.4062 29.8906 64.4062
L48.4844 64.4062
L48.4844 61.8125
Q48.4844 61.7188 48.4531 61.6719
Q48.4375 61.625 48.3906 61.5312
L34.625 42.1875
Q29.5469 34.6719 28.2656 25.4844
Q27 16.3125 27 2.59375
Q27 0.640625 25.5781 -0.78125
Q24.1719 -2.20312 22.2188 -2.20312
Q20.2188 -2.20312 18.7969 -0.78125
Q17.3906 0.640625 17.3906 2.59375" id="Cmr10-37"/>
      </defs>
      <g transform="translate(18.5427779935 200.619637233)scale(0.08 -0.08)">
       <use transform="translate(0.0 0.1796875)" xlink:href="#Cmr10-31"/>
       <use transform="translate(50.0 0.1796875)" xlink:href="#Cmr10-30"/>
       <use transform="translate(100.0 42.6953125)scale(0.7)" xlink:href="#Cmsy10-a1"/>
       <use transform="translate(154.379882812 42.6953125)scale(0.7)" xlink:href="#Cmr10-37"/>
      </g>
     </g>
    </g>
    <g id="ytick_2">
     <g id="line2d_16">
      <path clip-path="url(#p134097fe45)" d="
M39.1028 133.12
L429.165 133.12" style="fill:none;stroke:#000000;stroke-dasharray:1.000000,3.000000;stroke-dashoffset:0.0;stroke-width:0.5;"/>
     </g>
     <g id="line2d_17">
      <g>
       <use style="stroke:#000000;stroke-width:0.5;" x="39.1027779935" xlink:href="#m728421d6d4" y="133.120427447"/>
      </g>
     </g>
     <g id="line2d_18">
      <g>
       <use style="stroke:#000000;stroke-width:0.5;" x="429.165354331" xlink:href="#mcb0005524f" y="133.120427447"/>
      </g>
     </g>
     <g id="text_7">
      <!-- $10^{-6}$ -->
      <defs>
       <path d="
M25 -2.20312
Q18.7969 -2.20312 14.6406 1.09375
Q10.5 4.39062 8.21875 9.64062
Q5.95312 14.8906 5.07812 20.6562
Q4.20312 26.4219 4.20312 32.3281
Q4.20312 40.2344 7.28125 48.1875
Q10.3594 56.1562 16.3281 61.375
Q22.3125 66.6094 30.5156 66.6094
Q33.9375 66.6094 36.8906 65.3125
Q39.8438 64.0156 41.5312 61.5
Q43.2188 58.9844 43.2188 55.4219
Q43.2188 53.375 41.8281 51.9844
Q40.4375 50.5938 38.375 50.5938
Q36.4219 50.5938 35 52
Q33.5938 53.4219 33.5938 55.4219
Q33.5938 57.375 35 58.7812
Q36.4219 60.2031 38.375 60.2031
L38.9219 60.2031
Q37.6406 62.0156 35.3281 62.8594
Q33.0156 63.7188 30.5156 63.7188
Q27.4844 63.7188 24.9219 62.3906
Q22.3594 61.0781 20.3125 58.8281
Q18.2656 56.5938 16.8906 53.875
Q15.5312 51.1719 14.7656 47.7031
Q14.0156 44.2344 13.8125 41.2031
Q13.625 38.1875 13.625 33.5938
Q15.375 37.7031 18.5938 40.3125
Q21.8281 42.9219 25.875 42.9219
Q30.3281 42.9219 33.9844 41.1094
Q37.6406 39.3125 40.2812 36.1094
Q42.9219 32.9062 44.3125 28.7969
Q45.7031 24.7031 45.7031 20.5156
Q45.7031 14.6562 43.0938 9.34375
Q40.4844 4.04688 35.7344 0.921875
Q31 -2.20312 25 -2.20312
M25 0.984375
Q28.8594 0.984375 31.2031 2.73438
Q33.5469 4.5 34.6406 7.39062
Q35.75 10.2969 36.0156 13.25
Q36.2812 16.2188 36.2812 20.5156
Q36.2812 26.1719 35.7344 30.1719
Q35.2031 34.1875 32.8125 37.2344
Q30.4219 40.2812 25.4844 40.2812
Q21.4375 40.2812 18.8281 37.5469
Q16.2188 34.8125 15.0156 30.6406
Q13.8125 26.4688 13.8125 22.6094
Q13.8125 21.2969 13.9219 20.6094
Q13.9219 20.4531 13.8906 20.3594
Q13.875 20.2656 13.8125 20.125
Q13.8125 15.8281 14.6875 11.4219
Q15.5781 7.03125 18.0625 4
Q20.5625 0.984375 25 0.984375" id="Cmr10-36"/>
      </defs>
      <g transform="translate(18.5427779935 135.327927447)scale(0.08 -0.08)">
       <use transform="translate(0.0 0.8578125)" xlink:href="#Cmr10-31"/>
       <use transform="translate(50.0 0.8578125)" xlink:href="#Cmr10-30"/>
       <use transform="translate(100.0 43.3734375)scale(0.7)" xlink:href="#Cmsy10-a1"/>
       <use transform="translate(154.379882812 43.3734375)scale(0.7)" xlink:href="#Cmr10-36"/>
      </g>
     </g>
    </g>
    <g id="ytick_3">
     <g id="line2d_19">
      <path clip-path="url(#p134097fe45)" d="
M39.1028 67.8287
L429.165 67.8287" style="fill:none;stroke:#000000;stroke-dasharray:1.000000,3.000000;stroke-dashoffset:0.0;stroke-width:0.5;"/>
     </g>
     <g id="line2d_20">
      <g>
       <use style="stroke:#000000;stroke-width:0.5;" x="39.1027779935" xlink:href="#m728421d6d4" y="67.8287176603"/>
      </g>
     </g>
     <g id="line2d_21">
      <g>
       <use style="stroke:#000000;stroke-width:0.5;" x="429.165354331" xlink:href="#mcb0005524f" y="67.8287176603"/>
      </g>
     </g>
     <g id="text_8">
      <!-- $10^{-5}$ -->
      <defs>
       <path d="
M8.6875 11.375
Q9.71875 8.45312 11.8438 6.04688
Q13.9688 3.65625 16.875 2.3125
Q19.7812 0.984375 22.9062 0.984375
Q30.125 0.984375 32.8594 6.59375
Q35.5938 12.2031 35.5938 20.2188
Q35.5938 23.6875 35.4688 26.0469
Q35.3594 28.4219 34.8125 30.6094
Q33.8906 34.125 31.5625 36.7656
Q29.25 39.4062 25.875 39.4062
Q22.5156 39.4062 20.0938 38.375
Q17.6719 37.3594 16.1562 35.9844
Q14.6562 34.625 13.4844 33.1094
Q12.3125 31.5938 12.0156 31.5
L10.8906 31.5
Q10.6406 31.5 10.2656 31.8125
Q9.90625 32.125 9.90625 32.4219
L9.90625 65.8281
Q9.90625 66.0625 10.2188 66.3281
Q10.5469 66.6094 10.8906 66.6094
L11.1875 66.6094
Q17.9219 63.375 25.4844 63.375
Q32.9062 63.375 39.7969 66.6094
L40.0938 66.6094
Q40.4375 66.6094 40.7188 66.3594
Q41.0156 66.1094 41.0156 65.8281
L41.0156 64.8906
Q41.0156 64.4062 40.8281 64.4062
Q37.4062 59.8594 32.25 57.3125
Q27.0938 54.7812 21.5781 54.7812
Q17.5781 54.7812 13.375 55.9062
L13.375 37.0156
Q16.7031 39.7031 19.3125 40.8438
Q21.9219 42 25.9844 42
Q31.5 42 35.8594 38.8125
Q40.2344 35.6406 42.5781 30.5312
Q44.9219 25.4375 44.9219 20.125
Q44.9219 14.1094 41.9688 8.98438
Q39.0156 3.85938 33.9375 0.828125
Q28.8594 -2.20312 22.9062 -2.20312
Q17.9688 -2.20312 13.8438 0.328125
Q9.71875 2.875 7.34375 7.17188
Q4.98438 11.4688 4.98438 16.3125
Q4.98438 18.5625 6.4375 19.9688
Q7.90625 21.3906 10.1094 21.3906
Q12.3125 21.3906 13.7969 19.9375
Q15.2812 18.5 15.2812 16.3125
Q15.2812 14.1562 13.7969 12.6719
Q12.3125 11.1875 10.1094 11.1875
Q9.76562 11.1875 9.32812 11.25
Q8.89062 11.3281 8.6875 11.375" id="Cmr10-35"/>
      </defs>
      <g transform="translate(18.5427779935 70.0362176603)scale(0.08 -0.08)">
       <use transform="translate(0.0 0.8578125)" xlink:href="#Cmr10-31"/>
       <use transform="translate(50.0 0.8578125)" xlink:href="#Cmr10-30"/>
       <use transform="translate(100.0 43.3734375)scale(0.7)" xlink:href="#Cmsy10-a1"/>
       <use transform="translate(154.379882812 43.3734375)scale(0.7)" xlink:href="#Cmr10-35"/>
      </g>
     </g>
    </g>
    <g id="ytick_4">
     <g id="line2d_22">
      <defs>
       <path d="
M0 0
L2 0" id="mf0c55a9a47" style="stroke:#000000;stroke-width:0.5;"/>
      </defs>
      <g>
       <use style="stroke:#000000;stroke-width:0.5;" x="39.1027779935" xlink:href="#mf0c55a9a47" y="198.412137233"/>
      </g>
     </g>
     <g id="line2d_23">
      <defs>
       <path d="
M0 0
L-2 0" id="ma4f294b3af" style="stroke:#000000;stroke-width:0.5;"/>
      </defs>
      <g>
       <use style="stroke:#000000;stroke-width:0.5;" x="429.165354331" xlink:href="#ma4f294b3af" y="198.412137233"/>
      </g>
     </g>
    </g>
    <g id="ytick_5">
     <g id="line2d_24">
      <g>
       <use style="stroke:#000000;stroke-width:0.5;" x="39.1027779935" xlink:href="#mf0c55a9a47" y="133.120427447"/>
      </g>
     </g>
     <g id="line2d_25">
      <g>
       <use style="stroke:#000000;stroke-width:0.5;" x="429.165354331" xlink:href="#ma4f294b3af" y="133.120427447"/>
      </g>
     </g>
    </g>
    <g id="ytick_6">
     <g id="line2d_26">
      <g>
       <use style="stroke:#000000;stroke-width:0.5;" x="39.1027779935" xlink:href="#mf0c55a9a47" y="67.8287176603"/>
      </g>
     </g>
     <g id="line2d_27">
      <g>
       <use style="stroke:#000000;stroke-width:0.5;" x="429.165354331" xlink:href="#ma4f294b3af" y="67.8287176603"/>
      </g>
     </g>
    </g>
    <g id="ytick_7">
     <g id="line2d_28">
      <g>
       <use style="stroke:#000000;stroke-width:0.5;" x="39.1027779935" xlink:href="#mf0c55a9a47" y="2.53700787402"/>
      </g>
     </g>
     <g id="line2d_29">
      <g>
       <use style="stroke:#000000;stroke-width:0.5;" x="429.165354331" xlink:href="#ma4f294b3af" y="2.53700787402"/>
      </g>
     </g>
    </g>
    <g id="text_9">
     <!-- Id(A) -->
     <defs>
      <path d="
M45.4062 46.3906
L45.4062 75.9844
L54.3906 75.9844
L54.3906 0
L45.4062 0
L45.4062 8.20312
Q42.5781 3.32812 38.25 0.953125
Q33.9375 -1.42188 27.875 -1.42188
Q17.9688 -1.42188 11.7344 6.48438
Q5.51562 14.4062 5.51562 27.2969
Q5.51562 40.1875 11.7344 48.0938
Q17.9688 56 27.875 56
Q33.9375 56 38.25 53.625
Q42.5781 51.2656 45.4062 46.3906
M14.7969 27.2969
Q14.7969 17.3906 18.875 11.75
Q22.9531 6.10938 30.0781 6.10938
Q37.2031 6.10938 41.2969 11.75
Q45.4062 17.3906 45.4062 27.2969
Q45.4062 37.2031 41.2969 42.8438
Q37.2031 48.4844 30.0781 48.4844
Q22.9531 48.4844 18.875 42.8438
Q14.7969 37.2031 14.7969 27.2969" id="BitstreamVeraSans-Roman-64"/>
      <path d="
M34.1875 63.1875
L20.7969 26.9062
L47.6094 26.9062
z

M28.6094 72.9062
L39.7969 72.9062
L67.5781 0
L57.3281 0
L50.6875 18.7031
L17.8281 18.7031
L11.1875 0
L0.78125 0
z
" id="BitstreamVeraSans-Roman-41"/>
      <path d="
M9.8125 72.9062
L19.6719 72.9062
L19.6719 0
L9.8125 0
z
" id="BitstreamVeraSans-Roman-49"/>
     </defs>
     <g transform="translate(11.2551217435 128.953359375)rotate(-90.0)scale(0.11 -0.11)">
      <use xlink:href="#BitstreamVeraSans-Roman-49"/>
      <use x="29.4921875" xlink:href="#BitstreamVeraSans-Roman-64"/>
      <use x="92.96875" xlink:href="#BitstreamVeraSans-Roman-28"/>
      <use x="131.982421875" xlink:href="#BitstreamVeraSans-Roman-41"/>
      <use x="200.390625" xlink:href="#BitstreamVeraSans-Roman-29"/>
     </g>
    </g>
   </g>
   <g id="line2d_30">
    <path clip-path="url(#p134097fe45)" d="
M71.6223 205.284
L87.8693 195.893
L104.125 185.589
L120.383 174.975
L136.638 164.551
L152.885 154.14
L169.141 143.13
L185.398 131.546
L201.651 119.254
L217.914 106.5
L234.156 94.282
L250.408 82.9845
L266.672 72.8897
L282.924 64.2604
L299.166 57.2947
L315.43 51.4608
L331.682 46.6437
L347.935 42.6425
L364.187 39.3862
L380.44 36.8406
L396.693 34.9389" style="fill:none;stroke:#00bfff;stroke-linecap:round;stroke-width:3.0;"/>
   </g>
   <g id="patch_3">
    <path d="
M39.1028 2.53701
L429.165 2.53701" style="fill:none;stroke:#000000;"/>
   </g>
   <g id="patch_4">
    <path d="
M429.165 231.058
L429.165 2.53701" style="fill:none;stroke:#000000;"/>
   </g>
   <g id="patch_5">
    <path d="
M39.1028 231.058
L429.165 231.058" style="fill:none;stroke:#000000;"/>
   </g>
   <g id="patch_6">
    <path d="
M39.1028 231.058
L39.1028 2.53701" style="fill:none;stroke:#000000;"/>
   </g>
  </g>
 </g>
 <defs>
  <clipPath id="p134097fe45">
   <rect height="228.520984252" width="390.062576337" x="39.1027779935" y="2.53700787402"/>
  </clipPath>
 </defs>
</svg>
